<?xml version="1.0" encoding="UTF-8"?><svg id="Calque_1" xmlns="http://www.w3.org/2000/svg" viewBox="0 0 960.38 663.75"><defs><style>.cls-1{fill:#fff;}</style></defs><path class="cls-1" d="M391.37,184.6c-2.35,3.65-4.7,7.3-7.06,10.98-.13,0-.32.05-.46,0-3.01-1.15-6.01-2.3-9.01-3.47-1.85-.73-3.59-1.65-5.19-2.85-.58-.44-1.21-.85-1.86-1.18-2.49-1.27-4.7-2.93-6.85-4.69-.87-.71-1.64-1.56-2.4-2.39-.76-.83-1.47-1.72-2.18-2.6-.58-.71-1.23-1.33-2.05-1.75-.76-.4-1.35-1-1.93-1.63-2.23-2.43-3.99-5.21-5.77-7.96-1.56-2.41-2.82-5.03-4.16-7.58-.34-.64-.59-1.36-.72-2.07-.42-2.31-1.39-4.42-2.33-6.53-1.02-2.28-1.85-4.61-2.27-7.09-.12-.72-.29-1.44-.47-2.15-.7-2.8-1-5.68-1.49-8.52-.11-.66-.15-1.36-.11-2.03.25-4.06.08-8.15.67-12.19.06-.45.09-.91.06-1.35-.15-2.21.25-4.4.32-6.6.06-1.85.48-3.57,1.05-5.29.11-.32.24-.65.26-.98.15-2.01,1.01-3.81,1.71-5.65.28-.74.58-1.48.76-2.24.72-3.05,1.94-5.9,3.44-8.63,1.8-3.27,3.58-6.55,5.43-9.79.78-1.37,1.64-2.72,2.6-3.97,1.62-2.11,3.25-4.21,5.25-5.98,1.65-1.46,3.29-2.93,5.04-4.28,1.87-1.45,3.65-3.03,5.58-4.43,2.89-2.09,5.94-3.94,9.09-5.59,2.4-1.26,4.84-2.45,7.3-3.61,1.07-.5,2.2-.89,3.32-1.25,1.88-.61,3.79-1.12,5.66-1.77,2.31-.79,4.62-1.46,7.07-1.69,1.46-.14,2.89-.51,4.35-.72.83-.12,1.68-.15,2.52-.22,1.07-.08,2.14-.15,3.21-.22.62-.04,1.24-.08,1.86-.13.95-.08,1.91-.18,2.86-.23.79-.04,1.58-.07,2.37-.02,1.58.11,3.15.29,4.73.41.67.05,1.36.1,2.03.01,1.6-.2,3.15.04,4.71.37,2.21.47,4.4,1.04,6.67,1.23.56.05,1.12.17,1.66.33,4.01,1.19,8.11,2.04,12.04,3.51.32.12.65.19.97.31.93.35,1.72.2,2.5-.46,1.99-1.68,4.07-3.24,6.03-4.96,1.26-1.11,2.71-1.58,4.31-1.77.5-.06.88.24.91.77.11,1.69.19,3.39.28,5.08.11,2.09.22,4.18.33,6.26.07,1.24.13,2.49.19,3.73.05,1.19.1,2.37.13,3.56.19,6.33.87,12.64.84,18.98-.02,2.93.34,5.87.51,8.8.03.5,0,1.02-.06,1.52-.16,1.38-.38,1.68-1.69,1.94-.82.16-1.68.16-2.53.16-.69,0-1.12-.38-1.36-1.06-.3-.85-.67-1.68-1.04-2.5-.74-1.65-1.56-3.26-2.53-4.8-.87-1.39-1.59-2.87-2.32-4.33-.64-1.27-1.39-2.46-2.27-3.57-2.75-3.45-5.47-6.92-8.27-10.34-1.14-1.4-2.45-2.66-3.67-3.99-.27-.29-.57-.57-.75-.91-.28-.54-.73-.84-1.2-1.15-.71-.47-1.42-.93-2.07-1.47-.92-.76-1.93-1.37-2.95-1.99-2.67-1.63-5.54-2.79-8.49-3.8-2.4-.82-4.77-1.77-7.17-2.6-.73-.25-1.54-.35-2.32-.42-1.41-.14-2.82-.26-4.23-.29-1.75-.05-3.5-.02-5.26,0-.79,0-1.59.03-2.37.11-.78.08-1.57.19-2.34.35-.94.2-1.87.45-2.79.71-.43.12-.89.23-1.27.46-1.96,1.15-4.04,2-6.16,2.78-2.05.76-3.78,2.06-5.33,3.56-2.24,2.16-4.42,4.38-6.58,6.62-2.58,2.67-4.59,5.72-6.14,9.1-1.06,2.31-2.24,4.57-3.34,6.86-.42.86-.84,1.74-1.13,2.65-1.3,4.15-2.61,8.3-3.47,12.58-.62,3.11-1.24,6.22-1.5,9.37-.23,2.7-.14,5.43-.2,8.14-.06,2.71-.15,5.43-.19,8.14-.02,1.13.05,2.25.1,3.38.04.96.16,1.92.15,2.88-.02,1.99.2,3.95.54,5.9.19,1.11.19,2.26.38,3.37.76,4.29,1.57,8.56,3.4,12.57.21.46.37.95.49,1.44.44,1.77,1.16,3.42,1.92,5.07,1.11,2.41,2.07,4.89,3.37,7.22,1.24,2.22,2.37,4.5,3.64,6.71.5.87,1.16,1.67,1.86,2.41,1.74,1.85,3.53,3.67,5.33,5.47,1.69,1.69,3.63,3.06,5.68,4.27.96.56.96.56,1.81,1.71Z"/><path class="cls-1" d="M409.03,161.43c-1.6-.41-3.11-.87-4.65-1.18-1.66-.34-3.31-.69-4.94-1.2-1.23-.39-2.53-.57-3.8-.83-.61-.12-1.22-.21-1.84-.3-1.01-.14-2.02-.25-3.02-.42-1.39-.23-2.78-.49-4.16-.75-.36-.07-.6-.34-.66-.7-.16-1.01-.21-2.01.09-3.08.42-.06.8-.17,1.17-.17,1.24-.01,2.49.04,3.73,0,1.58-.04,3.16-.13,4.74-.2.45-.02.9-.04,1.36-.05,3.73-.05,7.47-.11,11.2-.14,1.07,0,2.15.08,3.22.1,3.9.09,7.8.17,11.71.24.56.01,1.14-.01,1.69-.09,4.22-.61,8.47-.49,12.71-.48,1.69,0,3.38.28,5.08.31,3.51.07,7.01.06,10.52.07.96,0,1.92-.07,2.88-.06.37,0,.75.15,1.12.23.35,1.26.2,2.43.11,3.57-.65.85-1.49,1.27-2.49,1.38-3.54.4-7.01,1.25-10.51,1.89-2.5.46-5.01.89-7.51,1.33-.56.1-1.1.24-1.66.34-.66.12-.98.53-.99,1.18-.04,1.92-.12,3.84-.1,5.76.02,1.75.17,3.5.22,5.25.08,3.28.19,6.56.16,9.84-.02,3.28-.23,6.56-.28,9.84-.06,3.79-.05,7.58-.05,11.37,0,.9.09,1.81.1,2.71.14,10.98.27,21.95.39,32.93.01,1.35-.15,2.71-.2,4.07-.06,1.81-.15,3.62-.12,5.43.06,4.24.27,8.49.26,12.73-.01,4.75-.21,9.5-.33,14.25,0,.11-.06.21-.09.32-.33.2-.54-.04-.71-.24-1.07-1.24-2.15-2.47-3.18-3.75-.93-1.14-1.78-2.34-2.7-3.49-1.62-2.03-3.2-4.11-4.93-6.06-1.72-1.94-3.58-3.78-5.42-5.61-2.09-2.07-4.16-4.16-6.56-5.89-.67-.48-.88-1.1-.86-1.89.1-4.58.15-9.17.28-13.75.06-2.15.07-4.29-.05-6.44-.26-4.69-.46-9.38-.6-14.07-.17-5.54-.12-11.09.16-16.63.29-5.71.21-11.43.18-17.14,0-1.24.07-2.49.05-3.73-.08-3.85-.18-7.69-.32-11.54-.06-1.69-.25-3.37-.4-5.27Z"/><path class="cls-1" d="M551.98,98.34c.19-.47.38-.76.43-1.07.45-3.25.88-6.5,1.32-9.75.04-.34.08-.68.08-1.01,0-2.26,0-4.52-.02-6.79,0-.51-.09-1.02-.06-1.52.07-1.47-.06-2.93-.12-4.4-.1-2.27-.42-4.51-.84-6.72-.26-1.32-.62-2.65-1.13-3.9-.89-2.14-1.91-4.22-2.91-6.31-1.23-2.55-2.63-5-4.35-7.27-.34-.45-.64-.94-.87-1.45-.86-1.92-1.95-3.7-3.07-5.47-.92-1.43-1.67-2.94-2.31-4.52-.76-1.89-1.63-3.72-2.42-5.6-.28-.67-.52-1.38-.68-2.09-.31-1.38-.58-2.77-.83-4.16-.26-1.45.74-2.28,2.13-1.77.21.08.41.2.6.32,1.09.72,2.05,1.58,2.98,2.5,2.15,2.12,3.85,4.6,5.53,7.06,1.56,2.28,2.95,4.69,3.88,7.32.51,1.44,1.1,2.85,1.68,4.26,1.32,3.22,1.9,6.62,2.33,10.05.38,2.97.76,5.94,1.67,8.82.22.69.39,1.4.64,2.3.24-.29.45-.42.45-.56.02-1.52.4-3.02.14-4.56-.1-.6-.01-1.24-.04-1.86-.03-.79-.05-1.58-.12-2.37-.16-1.8-.43-3.59-.5-5.4-.09-2.37-.03-4.75-.03-7.13,0-.4.05-.79.04-1.19-.03-1.65.29-3.25.59-4.87.42-2.23,1.09-4.39,1.83-6.52.33-.95.86-1.84,1.39-2.71.68-1.11,1.36-2.2,1.82-3.44.29-.79.79-1.49,1.2-2.23.55-.99,1.09-1.98,1.65-2.96.42-.74.84-1.47,1.27-2.2.09-.15.23-.26.29-.42.75-2.04,2.17-3.7,3.24-5.56.59-1.02,1.44-1.88,2.19-2.8.34-.41.78-.64,1.33-.63.69,0,1.23.29,1.45.95.16.47.29.99.29,1.48-.01,2.15-.08,4.3-.12,6.44-.02,1.24-.05,2.49-.03,3.73.09,4.07.21,8.14.29,12.21.07,3.67-.76,7.18-1.88,10.64-1.22,3.77-2.58,7.49-4.35,11.04-1.1,2.23-2.31,4.4-3.49,6.59-1.16,2.14-2.3,4.29-3.52,6.39-1.36,2.33-2.08,4.88-2.83,7.43-.16.54-.24,1.11-.42,1.64-.38,1.14-.49,2.31-.59,3.5-.23,2.87-.52,5.74-.81,8.61-.19,1.91-.39,3.82-.62,5.73-.21,1.74-.46,3.47-.73,5.2-.12.72-.37,1.42-.52,2.14-.12.59-.43,1.18-.1,1.92.19-.13.37-.23.51-.37.12-.12.19-.28.26-.43,1.13-2.47,2.23-4.94,3.38-7.4,1.1-2.36,2.27-4.67,3.33-7.05.85-1.91,1.57-3.87,2.35-5.81.21-.52.34-1.08.59-1.59,1.67-3.46,3.08-7.04,4.58-10.58.31-.73.73-1.4,1.06-2.12,1.51-3.3,3.63-6.25,5.49-9.34.55-.92,1.27-1.73,1.92-2.59.98-1.31,1.97-2.62,2.96-3.93.31-.41.59-.83.91-1.23,2.21-2.73,4.4-5.46,6.63-8.17,2.34-2.84,4.75-5.62,7.61-7.96.83-.68,1.64-1.4,2.39-2.17,1.87-1.91,4.07-3.41,6.24-4.94.23-.16.46-.33.71-.46,1.14-.56,2.16-.09,2.46,1.17.25,1.07.2,2.13-.16,3.18-.8,2.36-1.53,4.74-2.4,7.07-2.65,7.1-5.28,14.2-8.06,21.25-.93,2.36-2.22,4.57-3.43,6.81-1.05,1.94-2.24,3.8-3.02,5.88-.18.47-.44.92-.74,1.33-.92,1.3-1.57,2.74-2.28,4.16-.79,1.56-1.7,3.06-2.56,4.59-.19.34-.44.66-.61,1.02-1.04,2.11-2.52,3.87-4.26,5.43-.17.15-.35.29-.49.47-2.11,2.64-4.88,4.52-7.56,6.51-.5.37-1.02.72-1.5,1.11-2.29,1.85-4.59,3.68-6.84,5.56-2.64,2.22-5.37,4.34-7.8,6.79-.95.96-1.74,2.08-2.68,3.05-1.87,1.92-3.16,4.24-4.71,6.53-.51-.21-1.01-.42-1.59-.66.19-.76.61-1.27.97-1.83.4-.61.76-1.25,1.12-1.89.25-.45.41-.93.27-1.46-.13-.52.03-.98.23-1.47.28-.68.56-1.38.66-2.1.29-1.92.96-3.72,1.52-5.55.11-.38.24-.76.27-1.15.02-.26-.03-.63-.2-.78-.82-.73-1.02-1.75-1.33-2.7-.38-1.19-.71-2.37-1.68-3.27-.31-.28-.42-.79-.59-1.2-1.43-3.51-2.9-7-4.75-10.31-.27-.49-.5-1.02-.69-1.55-1.17-3.25-2.73-6.34-4.28-9.42-.81-1.61-1.8-3.14-2.82-4.63-1.89-2.75-3.82-5.47-5.8-8.16-1.64-2.23-3.38-4.39-5.08-6.58-.13-.17-.33-.29-.57-.5-.29.19-.56.37-.83.54-.36.23-.73.27-1.13.14-.25-.08-.42-.5-.26-.7.33-.39.68-.75,1.05-1.15-.12-.72-.62-1.18-1.09-1.65-.69-.69-1.18-1.5-1.72-2.3-.94-1.4-1.92-2.8-3.05-4.06-2.04-2.29-3.86-4.73-5.39-7.39-.65-1.12-1.4-2.19-2.15-3.25-1.31-1.85-2.48-3.79-3.46-5.83-.73-1.51-1.91-2.63-3-3.91-.37.24-.63.48-.93.56-.3.09-.67.09-.97,0-.34-.09-.62-.38-.53-.76.05-.24.25-.53.46-.64.33-.18.73-.24,1.17-.37-.09-.85-.53-1.5-1.01-2.11-.88-1.12-1.65-2.29-2.23-3.59-.24-.55-.56-1.07-1.27-1.57-.01.47-.07.73-.02.97.32,1.32.68,2.63,1,3.94.63,2.58,1.24,5.16,1.88,7.74.81,3.29,1.57,6.6,2.65,9.82.05.16.14.3.26.53.53-.1,1.06-.24,1.59-.29.18-.02.46.14.53.3.08.16.02.47-.1.62-.16.21-.42.38-.67.46-.31.1-.65.09-1.08.14.06.33.06.61.15.85,1.55,4.45,3.49,8.71,6.21,12.58,1.56,2.22,3.09,4.46,4.65,6.69,1.05,1.49,2.23,2.85,3.66,3.99.26.21.52.45.73.7,3.24,3.87,6.96,7.27,10.7,10.63,1.17,1.06,2.44,2.01,3.68,3,2.79,2.22,5.44,4.6,7.87,7.22,1.39,1.49,2.63,3.08,3.56,4.92.61,1.21,1.4,2.32,2.13,3.47.43.68.73,1.38.74,2.21,0,.44.15.89.32,1.31.66,1.59.95,3.23.97,4.96.02,2.15.03,4.3-.4,6.42-.26,1.27-.53,2.54-.86,3.8-.35,1.31-.77,2.6-1.17,3.9-.15.48-.28.98-.85,1.38-.44-.15-.95-.33-1.46-.5,0-.26-.04-.44,0-.59.57-1.77,1.24-3.52,1.73-5.32,1.02-3.75,1.5-7.57.64-11.41-.58-2.58-1.23-5.17-2.87-7.37-.5-.67-.83-1.48-1.25-2.21-1.29-2.23-3.06-4.06-4.91-5.82-2.75-2.61-5.7-4.99-8.64-7.38-1.97-1.6-3.76-3.42-5.62-5.16-.83-.77-1.62-1.57-2.42-2.38-1.75-1.77-3.51-3.53-5.22-5.33-.89-.94-1.76-1.92-2.52-2.97-1.82-2.52-3.59-5.08-5.32-7.66-.82-1.22-1.55-2.5-2.24-3.79-1.36-2.54-2.53-5.18-3.49-7.9-.28-.8-.47-1.62-.7-2.44-.1-.38-.17-.78-.28-1.15-1.54-4.91-2.54-9.97-3.83-14.94-.95-3.66-1.71-7.38-3.07-10.93-.2-.52-.34-1.08-.44-1.63-.07-.38-.08-.8,0-1.18.3-1.59,1.24-2.21,2.81-1.82.43.11.88.27,1.24.52,1.48,1.03,2.91,2.1,4.11,3.51,2.92,3.45,5.8,6.95,9.11,10.05,1.94,1.81,3.84,3.66,5.77,5.49.16.16.35.29.49.47,1.53,1.91,3.47,3.4,5.15,5.17.19.2.4.4.61.59,2.31,2,4.61,4,6.92,6,.21.18.44.36.68.51,1.82,1.11,3.11,2.76,4.42,4.39,1.35,1.69,2.3,3.62,3.42,5.45,1.39,2.27,2.67,4.6,3.83,6.99,2.15,4.44,3.92,9.04,4.85,13.89.5,2.6.96,5.22,1.13,7.88.11,1.63.44,3.25.64,4.87.25,2.08.46,4.16.7,6.23.2,1.75.5,3.47,1.3,5.07.14.29.35.54.63.96ZM596.59,46.79c-.18.13-.39.24-.52.41-1.35,1.68-2.44,3.52-3.52,5.28.06.22.08.34.13.43.08.15.21.27.28.42.24.53-.02,1.07-.56,1.16-.16.03-.34.02-.5-.02-.53-.12-.87.12-1.13.54-.15.24-.28.49-.42.74-1.81,3.14-3.6,6.28-5.42,9.41-1.54,2.64-3.09,5.27-4.67,7.88-1.41,2.32-2.91,4.58-4.31,6.91-1.69,2.81-3.27,5.69-4.97,8.5-1.43,2.37-2.94,4.7-4.48,7-1.89,2.82-3.86,5.59-5.77,8.39-.2.3-.56.57-.4,1.02.14.01.27.06.34.02,1.59-1.18,3.2-2.33,4.74-3.57,1.76-1.41,3.46-2.9,5.18-4.35.17-.14.36-.29.55-.39,1.16-.61,2.15-1.46,3.11-2.34,1.16-1.07,2.28-2.2,3.5-3.21,2.12-1.76,3.79-3.9,5.14-6.26,2.13-3.73,4.2-7.49,6.24-11.28,1.71-3.19,3.35-6.42,4.99-9.64.54-1.06,1.03-2.14,1.46-3.24,1.79-4.58,3.58-9.16,5.31-13.77,1.33-3.55,2.59-7.12,3.86-10.69.16-.45.5-.91.17-1.43-.93.57-1.19.89-2.18,2.76.13.19.28.42.43.65.17.25.24.51.05.78-.21.3-.49.45-.87.37-.26-.06-.53-.09-.88-.14-1.62,2.63-3.43,5.08-4.91,7.75l.06-.06ZM547.73,89.55c-.14-1.23-.26-2.46-.41-3.69-.12-.95-.35-1.89-.41-2.84-.16-2.77-.59-5.51-.99-8.24-.47-3.21-1.67-6.22-2.72-9.26-.83-2.4-1.94-4.69-3.1-6.96-1.14-2.22-2.55-4.27-3.7-6.47-1.03-1.97-2.45-3.66-3.79-5.4-.76-.99-1.66-1.85-2.74-2.51-.48-.29-.91-.67-1.36-1.01-2.93-2.24-5.52-4.86-8.23-7.33-1.92-1.75-3.76-3.59-5.61-5.42-1.37-1.35-2.69-2.74-4.04-4.11-1.1-1.12-2.11-2.37-3.8-2.68-.34-.06-.54-.44-.52-.8.05-.82-.42-1.38-.9-1.94-1.52-1.75-3.03-3.51-4.58-5.24-.53-.59-1.13-1.1-1.72-1.63-.15-.13-.35-.31-.63-.03.05.72.49,1.31.87,1.92.6.96,1.25,1.89,1.76,2.89,1.29,2.53,3.01,4.78,4.46,7.2.23.38.59.69.84,1.06.54.79,1.14,1.56,1.55,2.41.9,1.9,2.07,3.63,3.2,5.39.17.26.46.44.71.67.39-.53.69-1.02,1.37-1,.48.01.83.21.9.59.07.42-.15.72-.57.9-.39.16-.92-.05-1.2.46.05.15.08.33.16.47,1.56,2.69,3.26,5.3,5.37,7.61,1.34,1.47,2.5,3.06,3.59,4.72.71,1.08,1.56,2.07,2.37,3.09.42.53.92,1,1.33,1.54,1.38,1.79,2.73,3.6,4.11,5.39,2.24,2.91,4.64,5.71,6.57,8.85.09.14.19.28.3.41,2.17,2.84,4.05,5.85,5.44,9.15.53,1.25,1.16,2.45,1.72,3.69.33.72.67,1.44.93,2.18.54,1.56,1.22,3.04,2.12,4.42.36.55.55,1.21,1.37,1.53ZM583.39,53.96c-.49.65-.91,1.18-1.31,1.72-.74,1-1.43,2.04-2.21,3.01-1.21,1.49-2.41,2.99-3.26,4.73-.2.4-.46.79-.74,1.13-1.68,2.02-2.56,4.51-3.95,6.71-1.03,2.99-2.81,5.68-3.66,8.75-.07.27-.2.54-.34.77-1.5,2.43-2.19,5.19-3.32,7.78-.38.88-.71,1.78-1.11,2.65-.91,2-1.65,4.09-2.82,5.97-.06.09-.08.21-.13.31-.49,1.08-.99,2.15-1.47,3.23-.26.57-.51,1.13-.73,1.71-.07.19-.03.41-.05.78.88-.64,1.34-1.42,1.86-2.15.49-.69.94-1.41,1.42-2.11,1.79-2.6,3.98-4.93,5.36-7.81,1.86-2.37,3.21-5.05,4.74-7.62,1.65-2.77,3.29-5.54,4.96-8.3,1.61-2.66,3.25-5.3,4.86-7.96.38-.62.67-1.29,1.01-1.96-.21-.3-.36-.53-.53-.75-.25-.33-.43-.69-.23-1.1.21-.43.62-.41,1.03-.37.33.03.65.04.93.05,1.31-1.56,2.2-3.24,2.92-5.09-.35-.26-.68-.46-.95-.73-.35-.34-.4-.91-.16-1.24.27-.36.76-.47,1.22-.23.29.15.56.35.89.57.99-1.24,1.77-2.53,2.45-3.88-.46-.29-.87-.48-1.19-.77-.25-.23-.34-.65-.09-.93.15-.17.51-.31.72-.25.46.13.88.39,1.36.61.19-.22.39-.42.54-.65,3.39-5.01,6.77-10.03,10.15-15.04.09-.14.19-.29.24-.44.06-.19.08-.39.14-.69-1.28.8-3.87,3.14-3.97,3.59.19.36.4.75.59,1.1-.72,1.08-.81,1.11-1.74.59-.19-.11-.37-.22-.58-.35-.81.42-1.38,1-1.86,1.81.21.23.4.43.58.63.24.28.31.6.12.93-.2.35-.61.53-1.02.43-.21-.05-.41-.19-.62-.27-.58-.21-.58-.21-1.17.64.3.36.61.73.91,1.09-.1.61-.37,1-1.03,1.17-.36-.23-.78-.5-1.18-.76-.54.12-.84.38-.8,1.04.2.03.4.05.6.1.21.06.43.13.62.24.37.22.48.68.28,1.03-.24.42-.79.61-1.16.37-.18-.12-.35-.28-.48-.46-.16-.22-.26-.48-.39-.73-1.17.88-3.13,3.29-4.6,5.67.08.22.21.48.27.74.14.57-.07.9-.63.95-.39.04-.79,0-1.28,0ZM561.64,63.22c.11.03.22.06.33.09.24-.36.51-.71.72-1.09.74-1.33,1.5-2.66,2.18-4.02.98-1.97,1.98-3.94,2.84-5.96,1.39-3.27,2.51-6.64,3.47-10.07.69-2.47,1.08-4.97,1.06-7.52-.04-4.18-.15-8.36-.24-12.54-.02-.68-.1-1.35-.16-2.03-.02-.23-.1-.43-.47-.34-.7,1.79-1.41,3.63-2.13,5.46-.04.1-.05.22-.08.33-.18.71-.33,1.43-.53,2.13-.95,3.31-1.93,6.61-2.85,9.93-.65,2.34-1.32,4.68-1.78,7.06-.54,2.77-.91,5.57-1.29,8.37-.4,2.97-.73,5.94-1.07,8.92-.05.43,0,.86,0,1.3ZM570.65,14.52c-1.18.97-2.02,2.14-2.64,3.49-.32.72-.72,1.4-1.11,2.09-1.32,2.3-2.76,4.54-3.88,6.96-.43.92-.91,1.82-1.46,2.67-1.39,2.17-2.18,4.58-2.89,7.02-.25.87-.4,1.76-.55,2.66-.16.94-.27,1.9-.38,2.85-.06.5-.03,1.02-.1,1.52-.38,2.71-.03,5.42-.13,8.13,0,.17.03.34.04.51.29,2.81.77,5.6.64,8.44,0,.11-.01.23.01.34.26,1.23.25,2.47.13,3.71-.01.1.16.23.34.46.11-.33.18-.53.23-.72.95-3.39,1.16-6.91,1.68-10.37.32-2.12.45-4.27.93-6.37.08-.35.01-.74.01-1.07-.57,0-1.02.04-1.46-.02-.16-.02-.34-.27-.42-.45-.05-.12.05-.38.15-.44.28-.17.6-.33.91-.37.31-.04.64.07,1.04.13.44-1.82.86-3.58,1.3-5.32.44-1.75.87-3.51,1.35-5.25.47-1.69,1.02-3.35,1.52-5.03.52-1.73,1.03-3.47,1.57-5.19.54-1.73,1.13-3.43,1.64-5.17.5-1.72,1.29-3.35,1.52-5.18ZM551.04,56.07c0-.83.05-1.27,0-1.69-.31-2.12-.65-4.24-1.42-6.26-.72-1.9-1.41-3.81-2.12-5.71-.91-2.45-2.26-4.67-3.66-6.85-.82-1.28-1.75-2.49-2.65-3.72-.37-.5-.77-.97-1.19-1.43-.57-.62-1.18-1.2-1.76-1.81-.38-.4-.69-.87-1.36-1.1-.22,1.18,0,2.2.33,3.2.82,2.53,1.93,4.94,3.09,7.32.1.19.26.36.4.54.18-.1.34-.17.48-.25.14-.09.27-.21.42-.29.54-.27.97-.21,1.2.15.23.34,0,.8-.56,1.04-.3.13-.62.21-1.08.36.49.97.86,1.88,1.62,2.63.22-.54.35-1.04.9-1.25.39-.15.81-.03,1.01.35.3.56.1,1.15-.5,1.37-.28.1-.59.14-.97.23.32.74.57,1.35,1.12,1.81.45-.12.87-.27,1.3-.33.58-.08.97.46.72.99-.11.24-.32.45-.52.63-.2.17-.45.29-.74.46.2.43.32.8.52,1.12.66,1.05,1.35,2.08,2.01,3.14.56.91,1.11,1.83,1.63,2.76.43.79.85,1.58,1.81,2.57Z"/><path class="cls-1" d="M505.36,119.6c.83,1.05,1.58,2.04,2.38,3,.78.94,1.76,1.71,2.48,2.88-.79.14-1.39.32-2,.34-2.51.07-4.92.74-7.37,1.11-2.46.38-2.39.56-2.39,2.82,0,6.79.02,13.58.07,20.37.02,2.15.2,4.3.21,6.44.03,6.62.01,13.24.04,19.86,0,.79-.22,1.41-.73,2-.93,1.07-1.79,2.19-2.71,3.27-.4.47-.85.91-1.34,1.29-1.83,1.43-3.68,2.82-5.52,4.24-1.3,1-2.59,2.01-3.9,3-1.76,1.33-3.54,2.63-5.31,3.95-1.36,1.01-2.73,2.01-4.1,3.01-.12.09-.28.13-.55.25-.03-.35-.09-.61-.07-.87.3-5.44-.09-10.86-.32-16.28-.16-3.9-.26-7.8-.23-11.71.06-6.62.27-13.24.35-19.85.03-2.09-.15-4.18-.2-6.28-.02-.96.04-1.92.05-2.88.02-1.41.05-2.83.03-4.24-.04-1.92-.13-3.84-.19-5.77,0-.17,0-.34,0-.51-.04-1.31-.22-1.52-1.56-1.73-1.84-.28-3.7-.52-5.54-.8-2.62-.41-5.23-.86-7.81-1.52-2.57-.65-5.18-1.15-7.78-1.7-1.04-.22-1.22-.44-.98-1.51.16-.72.34-1.43.56-2.13.2-.63.49-.79,1.16-.71.5.06,1.01.16,1.51.24,2.13.37,4.29.29,6.43.33,2.09.03,4.19-.02,6.28,0,1.24,0,2.49.09,3.73.12.96.02,1.92.06,2.88.03,3.79-.14,7.58-.2,11.36-.5,3.4-.27,6.76-.25,10.16,0,3.61.27,7.23.31,10.93.45Z"/><path class="cls-1" d="M518.47,268.47c0-1.95.28-3.72.53-5.59.64-.03,1.19-.06,1.74-.08,1.02-.03,2.04,0,3.05-.08,1.58-.12,3.1-.49,4.61-1.03,2.07-.74,4.2-1.32,6.33-1.88,3.2-.84,5.87-2.58,8.28-4.78.75-.69,1.42-1.46,2.19-2.13,1.47-1.27,2.6-2.82,3.75-4.36.9-1.2,1.3-2.63,1.79-4.01,1.23-3.48,2.12-7.03,2.2-10.75.01-.68.04-1.36.03-2.03-.06-2.77-.15-5.54-.18-8.31-.02-1.48-.17-2.93-.57-4.36-.49-1.74-.94-3.49-1.43-5.23-.39-1.37-1.01-2.64-1.8-3.82-.62-.94-1.3-1.86-1.84-2.85-1.59-2.91-3.99-5.03-6.69-6.84-.33-.22-.66-.43-.99-.65-.04-.03-.07-.08-.12-.15.12-.39.46-.22.68-.2,5.53.55,11.08.28,16.61.28,2.54,0,5.08-.25,7.61-.48.79-.07,1.38.01,2.01.52,2.33,1.89,4.71,3.71,6.69,5.98,2.69,1.93,3.73,4.87,4.84,7.79.32.84.65,1.68,1.05,2.49.88,1.8,1.53,3.68,1.7,5.65.2,2.47.37,4.96.08,7.44-.56,4.85-1.56,9.59-3.37,14.13-.19.47-.42.93-.69,1.35-.76,1.19-1.56,2.36-2.31,3.55-1.22,1.91-2.66,3.63-4.21,5.3-2.54,2.75-5.71,4.59-8.72,6.69-2.85,1.98-5.87,3.59-9.19,4.63-2.15.67-4.27,1.47-6.42,2.16-.64.21-1.33.27-2,.35-1.12.14-2.25.21-3.37.38-2.07.31-4.13.63-6.18,1.04-1.91.38-3.83.33-5.74.16-1.75-.16-3.5-.26-5.24,0-.17.02-.34.05-.51.03-1.34-.1-2.69-.21-4.2-.33Z"/><path class="cls-1" d="M386.8,302.05v-3.83c.95-.54,1.99-.55,2.97-.72,5.51-.96,11.04-1.85,16.56-2.78.67-.11,1.34-.23,2-.37,1.14-.24,1.37-.52,1.45-1.73.03-.39.02-.79.03-1.19.02-2.09.05-4.19.07-6.28,0-.38.04-.76.07-1.26.76.14,1.23.54,1.71.9,2.62,1.94,5.55,3.28,8.62,4.29,1.82.59,3.7,1.03,5.56,1.53,1.04.28,2.09.49,3.11.83,1.4.46,2.79.91,4.28.98.52.02,1.01.16,1.2.76.14.43.49.59.91.63.39.04.79.07,1.18.08,9.22.31,18.43.65,27.66.46,2.15-.04,4.29-.2,6.43-.4,1.07-.1,2.14-.2,3.21-.23,3.86-.08,7.47-1.11,10.94-2.74.99-.46,1.8-1.17,2.5-2,1.51-1.76,3-3.54,4.53-5.28.93-1.06,1.94-2.06,2.86-3.13.8-.95,1.55-1.94,2.27-2.96,2.09-2.96,4.22-5.88,6.43-8.75,2.21-2.87,4.52-5.65,6.84-8.43.58-.69,1.06-1.46,1.59-2.19.5-.69,1-1.37,1.49-2.06.24-.34.51-.67.93-.66.67.02,1.38.08,1.89.6.17.17.25.52.22.77-.34,2.75-.74,5.49-1.06,8.24-.56,4.77-1.07,9.55-1.6,14.33-.35,3.15-.68,6.3-1.07,9.44-.17,1.4-.48,2.78-.71,4.18-.41,2.51-.81,5.02-1.21,7.53-.04.28-.03.58-.12.84-.26.74-.71,1.29-1.56,1.37-.96.08-1.92.2-2.88.23-4.02.09-8.03.18-12.05.22-1.3.01-2.6-.1-3.9-.18-1.19-.07-2.37-.16-3.55-.24-2.09-.13-4.18-.07-6.27-.05-4.41.06-8.83.05-13.24,0-1.58-.01-3.16-.22-4.74-.26-6.79-.18-13.58-.18-20.36.19-5.65.3-11.3.58-16.96.55-.17,0-.34.02-.51,0-3.77-.48-7.57-.25-11.35-.62-.5-.05-1.02-.08-1.52-.03-2.37.27-4.74.15-7.12.02-1.07-.06-2.15-.03-3.22-.02-4.02.04-8.03.09-12.05.13-.85,0-1.71.03-2.45-.69Z"/><path class="cls-1" d="M450.76,269.19c-.28-1.45-.27-2.68-.07-3.98.8-.24,1.63-.42,2.41-.72,1.95-.76,3.94-1.41,5.99-1.84,1.6-.33,3.24-.5,4.84-.86,3.25-.72,6.49-1.52,9.73-2.29.16-.04.31-.13.51-.21.4-.7.34-1.49.36-2.28.03-1.86.02-3.73.1-5.59.22-5.15.13-10.29-.14-15.43-.1-1.97-.08-3.96.01-5.93.16-3.51.16-7.01,0-10.51-.05-1.12,0-2.25,0-3.48.39-.07.75-.18,1.12-.2,3.04-.14,5.79.79,8.37,2.33.82.49,1.67.97,2.43,1.55,3.51,2.69,7.33,4.89,11.21,6.99.44.24.86.51,1.35.79,0,.66,0,1.27,0,1.89-.05,3.28-.15,6.56-.13,9.84.01,2.77.23,5.54.24,8.31,0,2.14-.19,4.29-.26,6.43-.06,1.75-.11,3.5-.1,5.25.01,1.22.22,1.48,1.39,1.78,1.31.33,2.65.56,3.97.83.02.06.04.11.04.16,0,.05.01.12,0,.16-.05.1-.1.2-.17.29-1.74,2.08-3.1,4.45-5.09,6.4-2.56.09-5.15.21-7.75.26-2.77.05-5.54.06-8.31.04-1.13,0-2.26-.16-3.38-.17-1.81-.02-3.61.02-5.42.03-7.18.05-14.36.11-21.54.16-.5,0-1.01,0-1.67,0Z"/><path class="cls-1" d="M509.52,177.53c1.68-1.33,3.37-2.66,5.05-3.99.44-.35.91-.7,1.27-1.12,2.13-2.49,4.36-4.9,6.11-7.7.39-.62.86-1.19,1.29-1.78.67-.91,1.34-1.82,2.03-2.72.55-.72,1.12-1.42,1.7-2.11.4-.48.88-.9,1.21-1.42,1.19-1.83,2.92-2.94,4.87-3.79.15-.07.3-.16.44-.25.05-.03.07-.08.14-.17-.05-.12-.07-.31-.18-.4-.45-.4-.5-.87-.26-1.38.89-1.89,1.64-3.84,2.83-5.58.6-.88,1.02-1.88,1.47-2.85.29-.63.64-1.19,1.2-1.68.77.85,1.06,1.71.43,2.75-.47.77-.88,1.58-1.32,2.37-.52.93-1.08,1.83-1.45,2.97.34,0,.57.06.74-.01.57-.25,1.1-.57,1.66-.84.4-.2.82-.38,1.24-.54.41-.15.84-.27,1.33-.42.47,1.26.72,2.45.56,3.74-1.16.72-2.31,1.4-3.57,1.93-1.72.72-3.4,1.54-5.07,2.37-1.07.53-1.95,1.32-2.77,2.21-2.23,2.42-4.14,5.09-6.18,7.65-.21.26-.41.55-.57.84-1.68,2.99-3.99,5.48-6.31,7.96-.54.58-1.17,1.07-1.78,1.57-1.4,1.14-2.86,2.22-4.22,3.41-1.49,1.3-2.94,2.65-4.33,4.05-1.24,1.25-2.53,2.42-3.95,3.46-.94.68-1.88,1.39-2.93,2.36.48.05.69.11.88.08,2.24-.34,4.45-.72,6.53-1.72,1.48-.7,3.02-1.27,4.55-1.87.63-.25,1.29-.41,1.94-.61.43-.13.9-.19,1.3-.38,1.55-.7,3.13-1.3,4.79-1.68.22-.05.42-.16.62-.27,3.28-1.69,6.81-2.71,10.3-3.84,3.88-1.26,7.85-2.1,11.82-2.99,1.38-.31,2.77-.53,4.17-.69,2.24-.26,4.46-.73,6.7-1.03,1.29-.17,2.59-.26,3.89-.28,3-.03,6-.04,9,.03,1.52.04,3.04.28,4.56.41,2.14.18,4.28.43,6.39.86.83.17,1.68.21,2.52.32,2.58.33,5.16.63,7.73,1.02,3.63.55,7.26,1.16,10.88,1.74,1.55.25,3.11.52,4.66.75.56.08,1.13.02,1.69.06,1.08.07,2.13.27,3.02.97.56.45.63.86.28,1.47-.3.52-.74.86-1.27,1.08-2.13.89-4.18,1.98-6.44,2.61-1.46.41-2.86,1.05-4.26,1.66-2.53,1.11-5.04,2.28-7.56,3.43-.31.14-.63.26-.92.43-3.05,1.83-6.46,2.73-9.83,3.64-3.49.94-7.04,1.65-10.58,2.38-1.32.27-2.68.4-4.04.47-3.78.21-7.54.72-11.33.9-2.55.12-5.08.27-7.63.16-4.07-.18-8.14-.39-12.21-.61-2.48-.13-4.97-.31-7.45-.48-.45-.03-.89-.16-1.34-.21-2.02-.21-4.05-.4-6.07-.63-.78-.09-1.57-.21-2.33-.42-1.27-.34-2.56-.46-3.86-.45-1.87,0-3.75.17-5.59-.04-2.28-.26-4.51.3-6.77.15-.44-.03-.9.09-1.35.13-.9.09-1.8.28-2.69.24-1.58-.07-3.01.42-4.44.95-.26.1-.5.28-.77.36-3.85,1.18-6.84,3.66-9.69,6.37-1.35,1.28-2.77,2.5-4.14,3.77-.31.29-.54.68-.91,1.15.41.14.65.28.9.29,3.05.23,6.12.21,9.16-.11,2.08-.22,4.17-.22,6.25-.46.99-.11,2.01.07,3.04-.03,2.08-.21,4.17-.33,6.25-.44,1.47-.08,2.94-.05,4.39.27.6.13,1.23.11,1.85.13.45.01.91-.08,1.36-.04,2.76.25,5.52.46,8.26.81,2.52.33,5.03.77,7.53,1.25,2.94.55,5.84,1.31,8.69,2.26,1.34.45,2.67.92,4.01,1.38,3.7,1.25,7.24,2.89,10.8,4.49,1.18.53,1.22.72,1.06,2.42-.54-.24-1.05-.45-1.55-.68-1.8-.83-3.58-1.7-5.39-2.49-5.2-2.27-10.6-3.93-16.11-5.22-2.97-.69-5.96-1.31-9.02-1.56-2.2-.18-4.39-.43-6.59-.61-.84-.07-1.69-.02-2.54-.03-.45,0-.92.04-1.35-.08-1.78-.49-3.6-.37-5.4-.28-3.9.2-7.79.45-11.69.51-2.02.03-4.04.4-6.34.64.41.31.6.56.81.59,1.51.24,3.02.45,4.53.64,2.86.35,5.75.57,8.58,1.06,2.28.4,4.56.79,6.86,1.09.28.04.56.1.82.2,2.56.96,5.27,1.26,7.92,1.79.22.04.44.09.66.14,5.95,1.58,11.94,3.06,17.85,4.77,4.61,1.34,9.13,2.99,13.7,4.47.68.22,1.34.64,2.23.4.04-.23.07-.5.14-.76.13-.47.48-.78.8-.71.41.09.74.32.84.75.05.21.05.45.02.67-.03.21-.11.42-.19.7.26.19.52.39.8.59.18.49.11.96-.1,1.42-.18,0-.3.03-.4,0-3.16-1.05-6.32-2.13-9.49-3.17-3.11-1.02-6.21-2.11-9.37-2.99-4.57-1.28-9.18-2.4-13.78-3.59-.22-.06-.45-.07-.66-.15-2.29-.87-4.7-1.22-7.1-1.57-.56-.08-1.13-.17-1.65-.38-2.08-.82-4.28-1.03-6.47-1.27-.39-.04-.81-.04-1.17-.17-1.4-.51-2.86-.59-4.33-.72-1.86-.16-3.7-.47-5.56-.68-1.1-.12-2.22-.29-3.3-.16-.13.38.11.48.28.61.18.14.37.26.57.36,2.04.99,3.97,2.15,5.85,3.41,1.45.98,2.97,1.86,4.46,2.78.1.06.18.14.28.19,3.29,1.77,6.55,3.58,9.87,5.28,2.31,1.18,4.71,2.2,7.07,3.3,2.26,1.05,4.56,1.93,6.99,2.56,2.24.58,4.48,1.18,6.72,1.73.33.08.66.14,1,.19.51.08.95.07,1.37-.39.43-.48.98-.42,1.26.12.45.88,1.21,1.12,2.06,1.26,4.47.72,8.93,1.47,13.48,1.45.49,0,1.02-.07,1.49.35.12.55-.06,1.06-.48,1.64-.32,0-.72.02-1.1,0-2.31-.17-4.64-.22-6.93-.55-3.3-.48-6.57-1.16-9.84-1.77-1.39-.26-2.78-.53-4.15-.87-2.19-.55-4.38-1.13-6.55-1.74-2.45-.69-4.81-1.64-7.11-2.75-2.19-1.05-4.44-2.01-6.57-3.16-3.63-1.96-7.36-3.75-10.82-6.01-2.13-1.39-4.29-2.75-6.51-3.99-3.08-1.71-6.3-3.05-9.87-3.39-2.08-.2-4.15-.56-6.21-.9-1.62-.27-3.12-.11-4.59.69-2.68,1.45-5.39,2.88-8.13,4.22-5.44,2.65-10.89,5.27-16.55,7.43-1.27.48-2.54.93-3.82,1.39-.37.13-.75.23-1.24.38-.06-.4-.12-.71-.13-1.02-.01-.28.04-.56.06-.9,1.31-.53,2.59-1.15,3.92-1.58,2.76-.88,5.36-2.12,8-3.27,4.88-2.12,9.62-4.52,14.28-7.09,1.29-.71,2.63-1.32,3.94-1.97.89-.44,1.82-.6,2.8-.46.67.09,1.34.24,2.01.33.42.06.86.05,1.45.08-.38-.69-.91-.91-1.38-1.19-.24-.14-.54-.19-.77-.34-.64-.4-.78-1.18-.24-1.74.71-.73,1.44-1.45,2.24-2.08,1.39-1.08,2.62-2.33,3.87-3.56,1.2-1.19,2.42-2.38,3.71-3.47.73-.61,1.59-1.1,2.44-1.52,2.28-1.13,4.6-2.17,6.99-3.05,1.19-.44,2.37-.72,3.64-.63.33.02.67,0,1.01,0-.04-.81-.35-1.13-.96-1.03-.39.06-.75.24-1.13.32-.5.1-.95-.13-1.13-.54-.2-.44-.09-.89.32-1.19,2.1-1.53,4.21-3.05,6.32-4.57.92-.66,1.83-1.33,2.76-1.98,1.3-.92,2.47-1.96,3.57-3.12,1.32-1.39,2.78-2.65,4.18-3.96l-.06.06ZM579.18,183.99c-.47,0-.87-.04-1.25,0-1.57.17-3.14.36-4.71.56-1.01.13-2.01.3-3.02.42-2.19.26-4.38.48-6.57.75-.31.04-.59.23-.89.35.21.69.94,1.18.39,1.92-1.38.12-1.43.06-1.64-1.9-.48-.03-.98-.09-1.48-.09-2.38,0-4.75-.02-7.13.05-2.15.06-4.31.07-6.43.38-1.85.27-3.71.34-5.56.52-1.96.18-3.94.21-5.91.41-3.15.32-6.31.49-9.47.73-.28.02-.56.04-.84.08-4.15.53-8.3,1.02-12.44,1.62-2.63.38-5.27.66-7.85,1.36-1.68.46-3.37.88-5.28,1.59.51.15.76.29,1.01.3.73.03,1.47.05,2.2,0,3.74-.25,7.46.21,11.19.21.17,0,.35,0,.51.05,2.47.69,4.99.97,7.54,1.01.17,0,.34.05.5.07,1.35.16,2.69.36,4.04.46,4.62.34,9.25.77,13.88.94,3.72.13,7.46.31,11.18-.18.33-.04.68-.02,1.02-.03,1.01-.04,2.03-.04,3.04-.13,1.8-.16,3.6-.38,5.4-.57,3.31-.35,6.64-.56,9.91-1.32,4.18-.97,8.39-1.84,12.47-3.2.53-.18,1.11-.33,1.55-.65.97-.72,2.08-1.14,3.17-1.6.36-.15.7-.34,1.1-.53,0-.44-.03-.83,0-1.22.05-.51.56-.77,1-.51.37.23.7.52,1,.75,1.84-.62,2.13-.78,2.98-1.62-.24-.29-.53-.57-.72-.89-.25-.43-.07-.93.36-1.16.32-.17.79-.02,1,.38.22.42.4.87.61,1.35.83-.36,1.54-.71,2.28-.98,1.11-.41,2.24-.77,3.36-1.16.37-.13.74-.28,1.1-.43.1-.04.21-.09.3-.15.05-.03.1-.07.12-.12.02-.04-.01-.09-.05-.27-.32-.05-.7-.18-1.05-.14-2.35.29-4.71.5-7.08.55-4.14.08-8.21.74-12.27,1.49-.37.07-.72.23-1.19.39.19.32.34.55.47.78.33.61.34,1.01.02,1.22-.46.3-.9.12-1.25-.17-.24-.19-.4-.52-.52-.82-.1-.24-.08-.52-.12-.87ZM555.16,175.27c-.92-.19-1.76-.07-2.6.06-1.73.27-3.46.55-5.19.86-3.9.68-7.8,1.35-11.6,2.45-2.33.67-4.67,1.32-6.99,2.05-1.61.51-3.19,1.13-4.78,1.72-.48.18-.92.44-1.39.62-2.2.86-4.41,1.71-6.62,2.56-.05.02-.11.02-.17.04-1.38.49-2.77.97-4.14,1.49-.23.09-.55.19-.51.64.19.03.4.1.6.09.96-.05,1.92-.09,2.88-.2,1.29-.15,2.57-.46,3.86-.53,1.48-.07,2.93-.23,4.37-.54.27-.06.56-.07.84-.09,2.2-.15,4.4-.3,6.59-.46,4.4-.32,8.8-.64,13.2-.98,1.13-.09,2.25-.29,3.37-.35,2.82-.15,5.65-.24,8.48-.36.48-.02,1,.09,1.45-.24-.11-.45-.22-.82-.27-1.2-.05-.37.26-.64.63-.6.62.06.94.37.95.96,0,.31-.04.61-.07,1.03.46,0,.8.03,1.13,0,5.62-.62,11.24-1.25,16.85-1.89.33-.04.65-.13.98-.19-.05-.56-.12-1.06-.11-1.55,0-.32.27-.48.59-.47.5.01.87.25,1.02.74.09.31.13.64.2,1.07,3.37-.2,6.58-1.1,9.91-1.5.09-.3.18-.56.25-.83.1-.4.25-.81.68-.89.51-.1.81.29,1.06.68.14.23.29.47.4.65.2.05.31.11.42.11,2.42-.15,4.84-.3,7.27-.47.03,0,.05-.19.09-.36-2.22-.38-4.4-.98-6.66-1.16-.9-.07-1.79-.27-2.68-.42-.55-.09-1.1-.29-1.66-.31-3-.12-5.9-1.03-8.91-1.06-.45,0-.9-.13-1.33-.24-3.14-.79-6.41-.6-9.57-1.28-.22-.05-.45-.03-.68-.03-1.92-.01-3.85-.03-5.77-.02-1.3,0-2.6.02-3.9.07-.3.01-.59.19-.84.27.15.53.34.95.37,1.38.03.46-.43.88-.85.91-.4.03-.96-.32-1.06-.7-.06-.21-.06-.45-.07-.67-.01-.27,0-.54,0-.84ZM476.17,211.31s-.08-.03-.12-.04c.02.04.05.09.07.13.02-.03.03-.06.05-.09Z"/><path class="cls-1" d="M566.21,170.09c-.57,0-1.18,0-1.8,0-3.17-.03-6.34-.02-9.5-.1-2.29-.06-4.51.32-6.7.89-1.2.32-2.39.68-3.59,1.01-.37.1-.75.17-1.09.24-.39-.36-.16-.67-.05-.97.99-2.84,1.7-5.74,2.25-8.69.38-2.03.32-4.05.17-6.08-.18-2.31-.39-4.62-.52-6.93-.08-1.36-.24-2.7-.61-4.01-.4-1.41-.63-2.85-1.19-4.23-1.21-3-2.98-5.57-5.44-7.66-.26-.22-.55-.4-.84-.57-2.36-1.45-4.72-2.89-7.07-4.34-.04-.03-.06-.09-.15-.22.58-2.67,1.18-5.41,1.78-8.17.59-.19,1.15-.07,1.69.05,3.64.8,7.29,1.59,10.92,2.45.93.22,1.82.61,2.7.98,1.3.56,2.57,1.16,3.85,1.77,1.07.51,2.13,1.04,3.19,1.58,1.21.61,2.39,1.28,3.62,1.86,1.51.72,2.73,1.74,3.77,3.07.97,1.24,2.1,2.36,3.24,3.46.58.56,1.11,1.12,1.48,1.83.44.86,1,1.64,1.73,2.29.65.58,1.09,1.3,1.37,2.11.55,1.54,1.15,3.07,1.62,4.64.65,2.16.47,4.37.22,6.56-.09.79-.09,1.56-.06,2.36.1,2.54.07,5.09-.93,7.5-.02.05-.04.11-.07.16-1.19,2.25-2.38,4.49-3.58,6.73-.08.14-.22.25-.4.45Z"/><path class="cls-1" d="M376.86,229.12c.3-.32.65-.61.89-.97,1.86-2.77,3.7-5.56,5.56-8.33,1.29-1.92,2.6-3.84,3.93-5.74.74-1.07,1.5-2.12,2.05-3.41-.22-.35-.44-.73-.68-1.1-.2-.32-.24-.65.02-.93.25-.27.58-.36.93-.22.35.14.69.33,1.09.52.28-.27.54-.48.74-.74.38-.49.69-1.04,1.09-1.51,2.39-2.88,4.39-6.04,6.53-9.1,1.88-2.69,3.87-5.3,5.82-7.94.47-.63,1-1.2,1.67-1.66.49,1.42.45,2.04-.27,2.99-1.19,1.58-2.41,3.14-3.61,4.72-1.88,2.48-3.62,5.06-5.21,7.74-.2.34-.38.69-.63,1.13.38.27.74.5,1.08.76.54.41.64.89.3,1.3-.49.58-1.12.67-1.61.21-.24-.22-.44-.5-.73-.84-.37.33-.76.56-1.01.9-1.67,2.21-3.45,4.34-4.83,6.76-.39.68-.93,1.27-1.38,1.92-1.95,2.78-3.87,5.58-5.51,8.55-.02.04,0,.11-.01.17.17.27.38.15.57.04.25-.14.48-.3.71-.46,1.6-1.19,3.32-2.14,5.17-2.88.57-.23,1.1-.58,1.63-.91,1.83-1.12,3.62-2.3,5.5-3.35,1.74-.97,3.33-2.14,4.82-3.45.89-.78,1.73-1.62,2.56-2.46.67-.68,1.33-1.36,2.16-1.9.44,1.54.36,2.16-.6,3.07-1.97,1.87-3.92,3.75-6.25,5.2-1.68,1.04-3.32,2.15-5.01,3.18-1.06.65-2.13,1.31-3.27,1.79-3.89,1.62-7.08,4.19-10,7.16-1.23,1.25-2.41,2.55-3.6,3.84-.49.53-.99,1.08-1.06,1.98.44.03.82.09,1.19.07,1.3-.07,2.59-.16,3.89-.24.28-.02.57-.03.84-.08,2.5-.47,4.99-.94,7.49-1.42.11-.02.22-.06.33-.09,1.95-.57,3.92-1.07,5.85-1.72,3.03-1.02,6.16-1.44,9.31-1.73.72-.07,1.45-.1,2.3-.16.04.49.07.91.11,1.4-.45.12-.81.27-1.19.32-1.85.23-3.71.39-5.56.66-1.78.26-3.49.82-5.14,1.44-.02.46.28.39.45.38,1.63-.17,3.26-.34,4.89-.56,1.97-.27,3.95-.25,5.93-.17.16,0,.31.1.56.18-.03.43-.06.86-.08,1.22-.18.12-.27.23-.36.23-3.34.11-6.65.55-9.96.97-.34.04-.69.04-1.01.13-2.23.64-4.54.9-6.8,1.42-.66.15-1.29.43-1.95.56-1.44.29-2.88.57-4.33.79-1.51.22-2.99.56-4.6,1.1.29.27.45.52.67.6.63.24,1.28.44,1.94.61,2.79.75,5.53,1.62,8.17,2.81,1.54.69,3.17,1.2,4.74,1.83.79.31,1.54.7,2.31,1.07,1.28.61,2.56,1.2,3.82,1.83,3.14,1.56,6.23,3.25,9.03,5.37,1.75,1.32,3.32,2.89,4.96,4.37.8.72,1.58,1.46,2.33,2.23.71.73,1.36,1.51,2.03,2.27.34.38.67.77,1.01,1.14.87.96,1.82,1.86,2.59,2.9.88,1.19,1.9,2.23,2.89,3.33,1.82,2.02,3.58,4.08,5.33,6.16.51.6.87,1.32,1.35,1.95.78,1.04,1.58,2.07,2.42,3.07,1.16,1.4,2.16,2.9,3.06,4.48.63,1.1.69,2.25.48,3.45-.12.68-.51,1.16-1.18,1.3-.6.12-1.24.21-1.83.13-.83-.11-1.66-.34-2.46-.6-2.52-.84-5.03-1.7-7.53-2.61-1-.37-1.95-.88-2.92-1.34-.2-.1-.38-.26-.6-.32-2.46-.63-4.47-2.14-6.58-3.43-2.12-1.29-4.2-2.67-6.31-3.98-3.43-2.13-6.59-4.58-9.19-7.7-.14-.17-.27-.37-.45-.51-1.92-1.46-3.26-3.44-4.73-5.29-.67-.84-1.35-1.68-1.97-2.56-.48-.69-.86-1.45-1.31-2.17-.29-.48-.55-1-.94-1.39-2.8-2.88-5.21-6.12-8.16-8.85-2.66-2.46-5.31-4.93-8.62-6.52-1.77-.85-3.63-1.23-5.57-1.36-2.83-.19-5.65,0-8.47.27-.73.07-1.47.15-2.2.14-3.19-.06-6.31.49-9.45.95-.56.08-1.1.24-1.65.4-3.69,1.06-7.39,2.12-11.07,3.22-.75.22-1.47.57-2.2.87-.21.08-.4.21-.61.28-1.1.31-2.06-.55-1.88-1.69.04-.28.16-.54.26-.8.29-.8.66-1.57.86-2.39.28-1.12,1.04-1.86,1.88-2.54.25-.21.59-.34.91-.41,1.99-.43,3.96-.95,5.97-1.23,2.47-.35,4.86-1.03,7.3-1.52.61-.12,1.23-.21,1.84-.23,1.7-.04,3.39-.03,5.09-.04,1.13,0,2.26.03,3.39-.01,2.03-.09,4.09-.06,6.09-.38,2.34-.37,4.61-1.1,6.7-2.3.86-.49,1.53-1.14,2.04-1.99,1.44-2.37,2.89-4.73,4.07-7.24.6-1.28,1.33-2.5,1.95-3.77.47-.96.9-1.95,1.26-2.96.66-1.86,1.26-3.75,1.86-5.63.95-2.96,1.76-5.97,2.89-8.87,1.24-3.16,2.35-6.37,4.14-9.27.86-1.4,1.79-2.75,2.67-4.13,1.83-2.87,4.04-5.46,6.25-8.03,2.03-2.35,4.17-4.61,6.55-6.62.86-.73,1.76-1.39,2.89-2.03.06.41.12.66.13.91.01.28-.02.56-.03.82-.86.78-1.67,1.55-2.51,2.3-2.77,2.44-5.12,5.27-7.49,8.08-2.08,2.48-3.94,5.1-5.66,7.83-.3.47-.49,1.01-.73,1.51l.06-.05c-.12.11-.29.19-.37.32-1.26,2.09-2.21,4.31-3.03,6.72.34.14.64.25.93.37.31.13.63.25.91.43.38.25.39.66.04,1-.19.19-.41.33-.7.56.32.29.66.51.88.81.24.32.32.73.03,1.1-.22.28-.65.29-1.08.04-.7-.41-.79-.73-.51-1.69.03-.1.02-.22.04-.39-.29-.2-.6-.42-1.02-.71-1.46,2.93-2.31,5.94-3.19,9.01.4.32.77.56,1.08.87.26.25.34.64.13.93-.14.19-.45.32-.69.35-.32.04-.65-.05-1.06-.1-.18.37-.39.7-.52,1.06-.28.8-.57,1.6-.75,2.43-.39,1.74-1.22,3.27-2.03,4.83-.86,1.65-1.66,3.34-2.47,5.02-.09.19-.09.43-.13.65-.17.14-.38.24-.49.41-.69,1.08-1.36,2.18-2.02,3.28-.08.14-.05.34-.07.54.76-.71,1.56-1.28,2.1-2.03.32-.44.25-1.17.36-1.76.03-.16.06-.33.08-.49ZM377.83,244.3c.2.2.37.4.57.57,1.34,1.21,2.77,2.34,4.02,3.64,1.89,1.94,3.66,4,5.48,6.01.71.79,1.42,1.58,2.35,2.27.22-.32.35-.56.53-.76.3-.34.69-.39,1.06-.17.54.32.68.93.29,1.45-.22.29-.52.53-.81.82,1.03,1.29,1.24,3.02,2.72,3.98.14-.24.23-.44.36-.6.42-.54.95-.63,1.44-.23.17.14.3.33.42.52.24.38.09.83-.33.94-.41.11-.84.17-1.31.26.08.27.09.46.19.57,1.44,1.74,2.86,3.5,4.34,5.2.81.94,1.68,1.85,2.62,2.66,1.89,1.62,3.8,3.2,5.78,4.7,1.12.85,2.38,1.52,3.58,2.25.72.44,1.45.87,2.2,1.27,1.99,1.06,3.93,2.24,6.09,2.94,2.34,1.49,5.09,2.16,7.45,3.63.61.38,1.34.6,2.03.85,1.27.46,2.56.89,3.85,1.32.13.04.3-.04.55-.08-.11-.31-.14-.61-.29-.81-.5-.68-1.01-1.36-1.59-1.97-2.1-2.22-4.5-4.12-6.77-6.15-3.88-3.46-7.67-7.03-11.45-10.6-1.56-1.48-3.07-3-4.98-4.06-.34-.19-.65-.45-.96-.7-1.53-1.25-3.02-2.55-4.58-3.76-3.44-2.67-7.04-5.11-10.74-7.41-3.12-1.94-6.21-3.92-9.24-6-1.3-.89-2.68-1.67-4.04-2.49-.22-.13-.46-.36-.83-.07ZM397.28,254.25c.77.57,1.46,1.15,2.33,1.45.16-.21.25-.34.35-.47.43-.6.78-.75,1.22-.51.45.25.61.71.4,1.33-.1.31-.27.59-.39.86,1.23,1.25,2.39,2.11,3.6,2.64.12-.16.24-.35.39-.5.54-.56,1.13-.51,1.48.18.11.22.13.55.07.8-.09.31-.31.58-.47.84.27.67.86.95,1.34,1.32,2.55,1.97,5.22,3.78,7.36,6.24.37.42.82.77,1.24,1.16,1.88,1.72,3.81,3.38,5.62,5.16,1.86,1.83,3.85,3.49,5.9,5.09.31.24.62.49.9.77,1.26,1.21,2.48,2.48,3.79,3.63.95.83,1.73,1.78,2.43,2.81.18.26.29.63.76.64.29-.6.2-1.19-.16-1.73-.83-1.21-1.6-2.48-2.55-3.59-.85-.99-1.6-2.04-2.33-3.11-1.92-2.81-4.36-5.19-6.53-7.78-.07-.09-.16-.16-.25-.23-.93-.76-1.65-1.69-2.33-2.67-.58-.83-1.19-1.66-1.91-2.37-.97-.95-2.01-1.82-2.71-3.01-.14-.24-.37-.43-.58-.61-1.24-.99-2.35-2.12-3.39-3.31-.48-.55-1.08-.99-1.64-1.47-.43-.37-.92-.67-1.31-1.07-2.18-2.21-4.89-3.65-7.56-5.11-2.67-1.46-5.47-2.7-8.21-4.03-.51-.25-1.03-.46-1.56-.66-1.42-.55-2.84-1.1-4.28-1.61-1.75-.62-3.52-1.21-5.29-1.78-.45-.15-.94-.29-1.58.04,2.72,2.5,5.83,4.22,8.79,6.15.46.3.87.72,1.57.73.12-.22.23-.47.4-.69.32-.44.61-.53,1-.37.46.18.78.49.76,1.01-.02.33-.14.66-.2.99-.02.1.03.22.06.43.37.22.8.47,1.12.66.61-.19,1.09-.34,1.51-.47q.81.77.89,2.24ZM372.98,235.29c-.11.02-.24.02-.32.08-2.06,1.47-4.46,2.16-6.82,2.91-2.17.68-4.44.77-6.71.77-3.16,0-6.32-.01-9.49.01-.67,0-1.34.11-2,.24-1.88.36-3.75.85-5.64,1.11-1.47.2-2.88.53-4.28.97-.31.1-.58.28-.83.4-.13.81-.25,1.52-.36,2.2.44.4.9.3,1.33.18,1.14-.32,2.29-.6,3.41-1.01,3.04-1.1,6.17-1.77,9.38-2.11,1.12-.12,2.25-.37,3.36-.32,2.38.11,4.73-.23,7.09-.43,2.55-.22,5.07-.02,7.61.14.51.03,1.01.13,1.51.17.54.05,1.06.32,1.61.24.15-1.64.28-1.82,1.74-2.41.26-.11.52-.22.77-.34.28-.14.71-.08.8-.52-1.6-.88-1.66-.94-2.16-2.28ZM334.22,242.13c-.29.19-.62.3-.79.52-.43.57-.78,1.19-.61,1.99,1.35-.78,1.63-1.28,1.4-2.51ZM378.15,237.34c.17.03.32.09.45.06.15-.03.29-.14.54-.28-.47-.11-.79-.25-1,.21Z"/><path class="cls-1" d="M509.52,177.53l.06-.06c-.74.03-1.23.52-1.77.93-1.35,1.03-2.68,2.09-4.04,3.1-.63.47-1.29.94-2,1.27-1.19.56-2.26,1.28-3.27,2.1-2.64,2.13-5.32,4.21-8.14,6.11-1.16.78-2.17,1.8-3.26,2.7-.69.58-1.38,1.15-2.08,1.72-.22.18-.47.31-.69.49-3.84,3.08-7.96,5.77-11.81,8.83-1.99,1.58-3.89,3.29-5.82,4.94-1.24,1.07-2.45,2.18-3.72,3.22-.47.39-1.04.69-1.6.93-2.39,1.03-4.79,2.01-7.18,3.05-.98.43-1.94.92-2.88,1.44-1.54.85-3.1,1.61-4.79,2.14-1.61.51-3.17,1.2-4.76,1.79-1.27.47-2.54.91-4.01,1.05v-1.5c.12-.08.2-.17.3-.21,3.03-1.08,6.07-2.14,9.1-3.23.53-.19,1.06-.42,1.53-.71,2.76-1.71,5.77-2.85,8.74-4.11.47-.2.92-.44,1.4-.6,1.97-.67,3.53-1.98,5.06-3.32.77-.67,1.58-1.28,2.35-1.94.73-.62,1.41-1.31,2.15-1.91,1.05-.86,2.13-1.67,3.2-2.51.31-.24.62-.5.93-.74,1.92-1.49,3.83-2.99,5.77-4.46,1.3-1,2.59-2.03,3.95-2.92,1.71-1.12,3.22-2.46,4.71-3.85,1.23-1.15,2.64-2.14,4.05-3.07,1.95-1.28,3.72-2.76,5.53-4.21,1.15-.92,2.33-1.78,3.61-2.52,1.17-.68,2.34-1.4,3.41-2.22,1.61-1.24,3.16-2.56,4.69-3.9,2.17-1.9,4.04-4.09,5.8-6.37,2.04-2.64,4.08-5.28,5.68-8.23.62-1.14,1.48-2.14,2.21-3.22.76-1.12,1.48-2.27,2.25-3.39.31-.45.43-.93.38-1.44-.15-1.46-.21-2.94-.5-4.37-.9-4.33-2.06-8.58-3.92-12.61-.88-1.9-1.93-3.7-3.29-5.31-3.43-4.06-6.92-8.08-10.29-12.19-1.93-2.36-3.89-4.71-5.44-7.35-.26-.44-.54-.87-.83-1.28-1.05-1.48-1.92-3.05-2.67-4.71-.86-1.9-1.9-3.73-2.84-5.6-.87-1.73-1.49-3.53-1.88-5.43-.28-1.38-.72-2.73-1.09-4.1-.42-1.53-.81-3.06-.92-4.65-.05-.67-.13-1.37-.36-2-1-2.68-.92-5.56-1.61-8.31-.68-2.74-1.07-5.55-1.5-8.34-.32-2.06-.5-4.15-.76-6.22-.06-.45-.11-.91-.25-1.33-.5-1.49-.34-3.02-.22-4.53.1-1.22,1.6-2.11,2.64-1.48,1.63.99,3.32,1.87,4.59,3.43,1.78,2.19,3.75,4.23,5.64,6.33,1.44,1.6,2.88,3.19,4.3,4.8,1.53,1.74,3.02,3.51,4.57,5.24.94,1.05,1.96,2.03,2.92,3.06,2.79,2.97,5.31,6.16,7.9,9.31,1.69,2.06,3.08,4.33,4.72,6.41,1.55,1.98,2.54,4.27,3.47,6.58.06.16.11.32.18.48,1.48,3.16,2.21,6.53,2.62,9.96.21,1.74.28,3.49.44,5.24.28,3.23-.05,6.45-.4,9.65-.21,1.95-.44,3.94-1.26,5.78-.77,1.72-1.15,3.54-1.37,5.4-.17,1.46-.31,2.92-.46,4.38-.02.22-.01.46.03.68.38,1.94.74,3.89,1.18,5.81.16.7.52,1.35.8,2.06.79-.23,1.01-.81,1.25-1.38.33-.78.64-1.57.99-2.34.8-1.75,1.71-3.44,2.91-4.96.62-.79,1.13-1.68,1.75-2.62.49.46.94.87,1.46,1.35-.34.53-.61,1.01-.94,1.45-1.79,2.42-3.38,4.95-4.35,7.83-.12.37-.38.69-.56,1.04-.54,1.05-1.07,2.11-1.62,3.16-.15.29-.32.6-.55.81-.36.34-.93.25-1.16-.19-.18-.34-.29-.73-.41-1.1-.23-.7-.44-1.4-.68-2.09-.07-.19-.15-.44-.51-.41-.11.71,0,1.43.07,2.15.04.39.15.78.16,1.18.03.9.04,1.81.02,2.72-.02.95-.9,1.4-1.33,2.11-.58.97-1.31,1.84-1.94,2.78-.82,1.22-1.64,2.44-2.39,3.7-1.57,2.63-3.4,5.07-5.3,7.47-.98,1.24-1.97,2.47-3.01,3.67-.7.81-1.47,1.56-2.24,2.32-.41.41-.8.8-.84,1.42ZM488.9,59.69c-.37.97-.23,1.57-.12,2.18.15.83.34,1.67.39,2.51.19,2.77.81,5.48,1.28,8.2.41,2.34,1.12,4.62,1.21,7.01.01.39.16.77.25,1.16.23,1.05.47,2.09.68,3.14.24,1.16.41,2.34.68,3.49.53,2.25,1.15,4.49,1.66,6.74.37,1.61,1.03,3.09,1.75,4.57.99,2.03,2.17,3.95,3.12,6.01,1.27,2.78,3.09,5.25,4.84,7.75.58.83,1.24,1.61,1.87,2.41.87,1.1,1.64,2.29,2.69,3.31.69-.29,1.34-.79,2.05-.22.36.87-.7.7-.87,1.17.61,1.22,2.59,3.64,3.78,4.6.31-.16.63-.38,1-.48.31-.08.67-.07.98,0,.41.08.58.67.27.94-.32.29-.69.53-1.1.83.18.31.3.56.47.77.56.71,1.12,1.42,1.72,2.1,2.18,2.43,3.79,5.2,5.01,8.21.57,1.41,1.12,2.84,1.69,4.25.12.29.29.55.6,1.11-.07-.84-.14-1.33-.13-1.83.01-.56.13-1.12.16-1.69.09-1.41.23-2.82.01-4.23-.46-2.91-1.19-5.74-2.09-8.55-.82-2.58-1.75-5.12-2.71-7.65-1.69-4.44-3.36-8.88-5.69-13.03-.08-.15-.16-.3-.23-.45-2.1-4.79-5.06-9.07-7.82-13.48-.12-.19-.26-.37-.41-.54-1.32-1.57-2.33-3.33-3.32-5.11-.77-1.38-1.66-2.69-2.51-4.02-.45-.72-.96-1.4-1.35-2.15-1.55-2.95-3.09-5.91-4.6-8.88-1.49-2.92-2.94-5.86-4.42-8.79-.19-.38-.44-.73-.8-1.34ZM505.73,86.11c.19.33.36.69.59,1.01,1.99,2.75,3.8,5.62,5.55,8.53.88,1.45,1.77,2.9,2.54,4.41,1.58,3.07,3.08,6.17,4.62,9.25.14.29.34.55.49.78.39-.18.68-.37.99-.43.41-.08.77.09,1.01.47.24.37.09.84-.34.94-.36.08-.74.1-1.15.16.03.33.02.57.09.77.82,2.34,1.44,4.76,2.64,6.97.4.74.83,1.53.97,2.34.42,2.42,1.62,4.58,2.17,6.95.05.22.29.4.51.69.67-1.17,1.12-2.24,1.23-3.45.14-1.58.35-3.14.5-4.72.14-1.46.33-2.93.32-4.39,0-3.23-.32-6.44-.89-9.62-.31-1.73-.64-3.44-1.34-5.07-.22-.52-.4-1.06-.58-1.59-.91-2.82-2.28-5.41-4.03-7.8-2.16-2.97-4.25-6-6.68-8.77-.41-.47-.76-.99-1.16-1.47-1.05-1.26-2.08-2.53-3.17-3.75-1.88-2.11-4.06-3.95-5.66-6.3-.06-.09-.15-.17-.23-.25-1.16-1.24-2.33-2.46-3.47-3.72-2.2-2.43-4.38-4.88-6.58-7.32-1.17-1.3-2.34-2.61-3.53-3.89-.79-.86-1.04-.98-2.07-1.14.44.71.95,1.39,1.32,2.14,1.95,3.95,3.85,7.93,5.82,11.88,1.24,2.48,2.55,4.92,3.87,7.36.45.84,1,1.64,1.52,2.45.79,1.24,1.59,2.47,2.39,3.7.18.28.37.55.52.76.2.04.31.08.42.07.57-.02,1.21-.1,1.53.48.38.69-.51.9-.75,1.58Z"/><path class="cls-1" d="M437.76,199.09c-.13-.19-.24-.27-.24-.37-.03-.34-.05-.68-.05-1.01.07-2.37.14-4.74.21-7.14.37-.18.66-.35.97-.46.68-.24,1.1-.77,1.54-1.29,2.41-2.92,4.81-5.86,7.24-8.77.83-1,1.73-1.94,2.6-2.91,1.06-1.18,2.18-2.31,3.16-3.55,2.95-3.73,5.86-7.47,8.74-11.25,1.23-1.62,2.34-3.33,3.49-5.01.71-1.04,1.17-1.12,2.2-.4.71.5,1.11,1.16.87,2.03-.59,2.14-.6,4.36-.91,6.54-.63,4.36-1.29,8.72-1.91,13.09-.43,3.02-.82,6.05-1.17,9.08-.09.74-.32,1.31-.95,1.69-1.16.7-2.3,1.45-3.51,2.05-1.01.5-2.11.8-3.16,1.22-1.15.46-2.31.92-3.42,1.46-1.48.72-2.98,1.35-4.56,1.82-2.49.75-4.95,1.57-7.44,2.34-.92.28-1.86.49-2.79.71-.32.07-.65.08-.92.12Z"/><path class="cls-1" d="M620.64,104.83c-2.08.79-3.91,2.02-5.73,3.26-1.77,1.22-3.52,2.46-5.25,3.74-2.14,1.57-4.25,3.19-6.37,4.79-1.72,1.29-3.34,2.73-5.16,3.86-4.28,2.66-8,6.1-12.35,8.64-.88.51-1.74,1.05-2.62,1.56-.92.55-1.89,1.03-2.77,1.63-1.27.86-2.58,1.61-3.99,2.24-1.91.85-3.8,1.74-5.78,2.66-.33-.45-.62-.84-.92-1.24.16-.2.24-.37.38-.44.7-.36,1.41-.72,2.14-1.03,2.35-1,4.6-2.18,6.78-3.49,1.26-.76,2.55-1.46,3.82-2.21.53-.31,1.03-.68,1.48-.97.14-.62-.43-.71-.55-1.06-.09-.24-.15-.56-.07-.78.15-.38.53-.35.88-.28.57.11.8.56,1.03,1,.53.14.85-.25,1.22-.49,2.69-1.75,5.27-3.65,7.72-5.78-.48-.28-.89-.44-1.21-.71-.38-.33-.17-.91.32-1.06.41-.12.85-.12,1.11.2.22.27.24.69.34,1.05,1.22-.43,2.21-1.11,3.71-2.61-.28-.25-.56-.48-.83-.73-.22-.21-.34-.46-.19-.76.17-.33.47-.54.83-.45.31.08.62.26.84.49.18.18.24.5.35.75,1.15-.42,1.82-.91,3.72-2.68-.29-.23-.6-.43-.86-.69-.26-.26-.33-.61-.1-.93.22-.32.59-.37.91-.24.24.09.45.31.62.52.13.16.17.39.3.7.92-.32,1.55-.98,2.25-1.51.72-.55,1.42-1.12,2.15-1.65.73-.53,1.51-.99,2.24-1.53.72-.53,1.53-.98,2.04-1.75-1.12-1.53-1.12-1.53-2.56-.68.06.23.12.49.2.75.11.37.01.71-.32.87-.22.1-.58.12-.79.02-.39-.19-.73-.51-1.12-.79-1.38.56-2.81.92-4.04,1.87.12.33.27.62.33.94.07.4-.42.8-.78.63-.45-.21-.86-.51-1.38-.83-.5.21-1.08.43-1.63.71-.29.14-.54.38-.89.64.13.28.24.52.35.77.12.28.12.55-.11.78-.27.26-.63.35-.93.18-.38-.21-.71-.53-1.1-.83-.56-.06-1.04.28-1.53.52-2.14,1.02-4.31,2-6.4,3.12-1.74.93-3.36,2.09-5.09,3.04-2.53,1.4-4.78,3.22-7.23,4.75-.67.42-1.31.89-1.93,1.38-2.98,2.33-5.96,4.67-8.98,7.04-.58-.22-.91-.66-1.19-1.12.04-.09.05-.15.09-.18,1.72-1.37,3.45-2.74,5.17-4.1.8-.63,1.63-1.22,2.39-1.89,1.23-1.09,2.52-2.1,3.93-2.95.53-.32,1.05-.67,1.57-1.01,1.61-1.05,3.26-2.04,4.82-3.15,3.95-2.8,8.36-4.72,12.68-6.82,1.12-.54,2.24-1.08,3.36-1.61,3.43-1.61,6.82-3.3,10.29-4.8,2.59-1.12,5.1-2.41,7.7-3.52,2.49-1.06,4.99-2.13,7.59-2.92.59-.18,1.2-.31,1.82-.4.38-.06.8-.05,1.18.02,1.21.22,1.74,1.1,1.32,2.24-.21.58-.52,1.14-.86,1.65-.41.61-.88,1.18-1.37,1.73-2.43,2.69-4.59,5.59-6.77,8.49-2.52,3.34-5.07,6.66-8.02,9.65-.28.28-.55.58-.77.9-1.59,2.3-3.64,4.16-5.6,6.13-1.92,1.93-4.06,3.6-6.15,5.32-1.74,1.43-3.63,2.68-5.68,3.68-1.67.82-3.34,1.64-5.03,2.42-3.19,1.48-6.56,2.44-9.86,3.6-.37.13-.76.23-1.14.33-1.47.38-2.94.76-4.5,1.17-.22-.48-.42-.92-.67-1.47,1.23-.39,2.34-.78,3.48-1.08,2.35-.62,4.68-1.27,6.91-2.28,1.23-.56,2.54-.93,3.81-1.42,3.71-1.43,7.18-3.33,10.45-5.57.7-.48,1.33-1.05,1.98-1.59,3.84-3.18,7.55-6.49,10.59-10.47.44-.58.98-1.09,1.47-1.64.45-.5.88-1.01,1.35-1.55-.49-.35-.91-.59-1.24-.93-.23-.24-.31-.61-.06-.93.25-.34.7-.48,1.05-.27.42.26.8.59,1.28.95,2.44-2.78,4.57-5.76,6.69-8.74-.09-.21-.11-.39-.21-.51q-.93-1.05-.35-2.25c.6.29,1.2.58,1.76.85,1.56-1.37,2.45-2.58,2.53-3.41-1.13.4-2.8,1.42-4.27,2.59ZM621.61,101.28c-1.43.2-2.65.76-3.75,1.64-.04.03-.09.08-.1.13-.01.11-.05.25,0,.32.09.12.23.25.37.28.15.03.34-.02.47-.1.99-.61,1.97-1.23,2.95-1.86.05-.04.03-.19.05-.4ZM614.23,106.05c.89-.41,1.6-.59,1.9-1.32-.62-.88-.73-.94-1.28-.62-.27.16-.62.38-.71.64-.1.32.03.72.09,1.3Z"/><path class="cls-1" d="M498.94,197.56c.3,1.43.33,5.01.05,6.78-.24.06-.5.15-.77.2-2.68.44-5.35.88-8.04,1.29-1.17.18-2.35.32-3.53.43-2.31.22-4.62.4-6.93.6-.22.02-.46.01-.67-.05-.13-.04-.25-.21-.31-.35-.03-.07.04-.22.09-.31.06-.09.15-.17.24-.24.96-.7,1.89-1.44,2.88-2.07,1.38-.87,2.82-1.67,4.24-2.49.49-.28,1.05-.47,1.48-.83,1.2-.99,2.61-1.57,3.97-2.24.3-.15.61-.34.93-.39,2.01-.29,4.02-.68,6.07-.48.1,0,.19.1.29.15Z"/><path class="cls-1" d="M438.58,239.43c-.31-.6-.21-1.13-.1-1.68.25-.03.42-.08.58-.07.22,0,.45.08.67.08,2.89.09,5.69.84,8.55,1.14.61.06,1.23.19,1.83.35,2.19.58,4.43.83,6.65,1.24.28.05.57.1.84.08,1.61-.14,3.14.22,4.68.62.43.11.89.18,1.33.2,2.5.14,4.85.92,7.28,1.48v1.67c-1.48-.24-2.85-.47-4.27-.71-.17.3-.32.53-.42.78-.14.36-.38.55-.77.53-.38-.03-.63-.26-.76-.59-.14-.36-.21-.75-.34-1.23-1.82-.28-3.65-.57-5.49-.82-.31-.04-.64.12-.93.19-.11.61-.21,1.15-.3,1.65-.8.16-1.2-.14-1.36-.79-.09-.38-.15-.77-.23-1.18-1.35-.73-2.88-.58-4.28-.96-1.47-.4-2.98-.61-4.5-.75-1.46-.13-2.89-.53-4.34-.7-1.45-.17-2.92-.13-4.31-.52Z"/><path class="cls-1" d="M438.54,242.87v-1.65c1.68.28,3.11.95,4.5,1.66,5.1,2.59,10.38,4.64,15.95,5.96,3.56.84,7.1,1.82,10.64,2.75.38.1.73.27,1.08.4.21.54.23,1.02-.1,1.56-2.28-.51-4.47-1.49-6.96-1.64-.13.29-.27.57-.4.87-.12.27-.31.56-.6.48-.29-.08-.66-.29-.78-.54-.18-.39-.17-.86-.23-1.23-.45-.45-.94-.51-1.44-.64-2.79-.68-5.6-1.28-8.32-2.28-1.55-.57-2.99-1.31-4.47-2.01-1.42-.67-2.98-.98-4.35-1.84-.9-.56-1.94-.89-2.93-1.3-.47-.19-.95-.34-1.6-.56Z"/><path class="cls-1" d="M458.87,259.83c-.48.2-.69.28-.9.37-.79.35-1.51.25-2.22-.26-1.39-.97-2.8-1.9-4.21-2.83-.98-.65-1.99-1.28-2.97-1.94-.88-.6-1.75-1.23-2.62-1.86-1.37-.99-2.73-2-4.09-3-1-.73-2-1.47-3.08-2.28-.04-.57-.08-1.17-.13-1.97.38.16.63.21.83.35,1.69,1.22,3.37,2.46,5.05,3.7,1.36,1,2.69,2.05,4.1,2.99,3,2.01,6.03,3.96,9.05,5.94.32.21.63.42,1.19.78Z"/><path class="cls-1" d="M390.36,195.61c.83-.32,1.64-.23,2.36.27.2.14.41.44.39.64-.02.22-.25.51-.46.62-.83.44-1.67.09-2.02-.8-.1-.25-.14-.53-.21-.8,0,0-.06.05-.06.05Z"/><path class="cls-1" d="M397.4,209.28c.04.44-.61,1.04-1.14,1.08-.45.03-.94-.56-.99-1.2-.03-.44.36-.93.78-.96.57-.04,1.31.55,1.35,1.08Z"/><path class="cls-1" d="M615.26,111.58c.02.46-.46.96-.95.99-.5.02-1.09-.57-1.07-1.08.01-.38.48-.75.96-.76.55,0,1.04.39,1.06.85Z"/><path class="cls-1" d="M404.04,206.65c.04.59-.39,1.05-1.02,1.08-.45.02-.84-.35-.88-.82-.04-.53.35-1.03.83-1.08.53-.05,1.04.34,1.07.82Z"/><path class="cls-1" d="M549.26,233.35c.02.44-.37.88-.82.91-.57.04-1.01-.44-1.02-1.09,0-.39.34-.81.69-.84.54-.04,1.12.48,1.14,1.02Z"/><path class="cls-1" d="M400.54,186.03c-.49-.04-.86-.49-.86-1.05,0-.45.43-.85.87-.8.64.07,1.11.53,1.08,1.05-.03.46-.55.84-1.09.8Z"/><path class="cls-1" d="M400.48,187.98c0,.32-.37.68-.78.74-.58.09-1.07-.22-1.27-.82-.11-.34-.03-.66.27-.88.08-.06.2-.13.3-.12.56.07,1.08.23,1.39.76.05.09.06.21.09.31Z"/><path class="cls-1" d="M397.78,197.9c-.16.24-.23.41-.36.5-.37.29-.91.29-1.27.04-.43-.3-.64-1-.41-1.34.24-.36.93-.44,1.38-.07.28.23.45.59.66.87Z"/><path class="cls-1" d="M391.18,200.18c-.04.36-.45.69-.82.68-.5-.02-.97-.36-1.13-.85-.11-.33-.11-.71.2-.9.21-.13.54-.18.77-.11.67.19,1.03.68.98,1.18Z"/><path class="cls-1" d="M392.97,201.32c.45.08.79.08,1.07.2.49.21.63.59.51,1.09-.13.49-.51.78-.97.73-.44-.05-.8-.4-.87-.88-.02-.11,0-.23.02-.33.05-.21.12-.42.24-.81Z"/><path class="cls-1" d="M511.53,43.28c.5,0,.99.45,1.01.92.01.47-.5.92-1,.9-.54-.03-1.03-.46-1.01-.9.02-.48.49-.91,1.01-.92Z"/><path class="cls-1" d="M396.22,191.83c-.08.09-.16.26-.29.32-.82.4-1.74-.14-1.83-1.06-.03-.28.2-.59.46-.59.73,0,1.26.36,1.64.96.05.08.02.21.02.38Z"/><path class="cls-1" d="M584.21,132.79c.8,0,1.24.26,1.29.77.03.23-.12.56-.29.71-.38.31-.97.22-1.36-.16-.24-.23-.49-.54-.27-.87.16-.24.5-.36.63-.45Z"/><path class="cls-1" d="M398.13,192.6c.73,0,1.34.46,1.37.92.03.49-.46.99-.94.96-.52-.03-.96-.57-.88-1.2.04-.27.32-.5.44-.68Z"/><path class="cls-1" d="M609.92,114.43c-.06.11-.12.27-.23.39-.3.32-.69.37-1.09.23-.41-.14-.64-.46-.71-.87-.03-.14.05-.34.14-.46.27-.39.68-.35,1.07-.25.39.1.72.32.83.75.01.05,0,.11-.01.21Z"/><path class="cls-1" d="M619.1,108.81c.02.45-.37.85-.83.86-.57.01-1.09-.42-1.16-.98-.04-.33.35-.7.76-.73.69-.04,1.21.32,1.23.84Z"/><path class="cls-1" d="M452.52,244.65c.02.42-.35.77-.87.81-.62.05-.98-.22-1.04-.79-.06-.52.22-.86.73-.89.66-.04,1.16.33,1.19.87Z"/><path class="cls-1" d="M540.1,233.22c-.61.04-1.08-.38-1.12-.99-.02-.38.31-.78.68-.84.5-.07,1.05.43,1.11,1.03.04.39-.29.78-.67.81Z"/><path class="cls-1" d="M404.33,182.95c-.07.36-.55.66-.91.57-.59-.15-1.03-.86-.85-1.44.04-.14.19-.3.33-.34.72-.22,1.57.52,1.43,1.21Z"/><path class="cls-1" d="M391.25,213.77c.29.12.5.18.68.3.47.29.65.76.46,1.1-.2.37-.71.52-1.16.36-.5-.17-.86-.73-.65-1.16.12-.25.45-.41.67-.6Z"/><path class="cls-1" d="M397.18,214.18c-.6-.02-1.18-.89-.98-1.48.04-.1.1-.21.18-.28.29-.24.62-.22.93-.04.41.23.72.55.66,1.06-.04.37-.29.59-.62.7-.05.02-.11.02-.17.02Z"/><path class="cls-1" d="M515.37,47.27c.57,0,.98.26,1.01.56.04.36-.19.77-.58.93-.15.07-.32.1-.48.12-.42.04-.82-.23-.9-.6-.08-.36.17-.79.55-.93.15-.06.32-.07.4-.09Z"/><path class="cls-1" d="M509.54,39.95c-.06.5-.42.75-.84.93-.37.16-.8.05-1.02-.31-.1-.17-.15-.42-.11-.61.1-.41.41-.66.83-.72.41-.06.77.07,1.03.4.06.08.08.2.12.31Z"/><path class="cls-1" d="M402.59,190.43c-.46,0-.94-.51-.96-1-.02-.4.34-.84.68-.82.52.03,1.14.55,1.22,1.02.05.34-.5.81-.93.8Z"/><path class="cls-1" d="M406.27,198.9c-.11.39-.24.69-.64.72-.57.04-1.07-.2-1.22-.64-.11-.32-.12-.66.15-.92.07-.07.19-.13.29-.13.53-.03.98.15,1.3.58.09.12.1.3.13.4Z"/><path class="cls-1" d="M404.11,203.6c-.34.09-.69.26-1.04.25-.49-.01-.83-.37-.86-.87-.01-.24.12-.56.29-.7.18-.14.56-.21.75-.11.51.25.89.66.86,1.43Z"/><path class="cls-1" d="M391.05,218.69c-.59.03-1.01-.11-1.27-.53-.1-.17-.2-.47-.12-.6.13-.21.4-.45.63-.47.59-.04,1.1.23,1.38.77.07.14-.02.44-.14.58-.13.15-.38.2-.49.26Z"/><path class="cls-1" d="M545.38,220.03c.5.02.96.6.94,1.21-.01.39-.38.74-.77.75-.55,0-.95-.52-.91-1.19.02-.43.36-.78.74-.77Z"/><path class="cls-1" d="M405.89,185.85c-.03.42-.55.84-.96.77-.46-.08-.82-.56-.84-1.12-.01-.31.31-.64.65-.64.61,0,1.18.48,1.15.99Z"/><path class="cls-1" d="M516.35,54.23c-.47,0-.91-.42-.86-.82.05-.42.47-.74.97-.74.42,0,.82.3.87.64.07.45-.44.93-.97.92Z"/><path class="cls-1" d="M601.15,122.04c0,.45-.41.85-.85.81-.53-.04-.96-.46-.95-.95,0-.37.37-.7.77-.71.57-.02,1.03.36,1.03.85Z"/><path class="cls-1" d="M471.34,247.09c-.08.09-.17.33-.33.39-.81.33-1.63-.2-1.62-1.06,0-.29.18-.54.5-.57.63-.06,1.34.5,1.45,1.23Z"/><path class="cls-1" d="M540.07,227.53c.55.05.94.47.94,1,0,.45-.45.76-.96.68-.48-.08-.77-.46-.75-.96.02-.43.37-.76.77-.72Z"/><path class="cls-1" d="M509.02,46.35c-.1.16-.22.55-.46.66-.32.15-.75.14-1.12.08-.28-.05-.46-.36-.35-.66.18-.51.55-.84,1.1-.91.38-.05.78.28.83.83Z"/><path class="cls-1" d="M456.1,251.84c-.15.24-.23.48-.39.58-.35.22-.77.22-1.07-.05-.22-.2-.38-.52-.45-.81-.04-.16.12-.45.27-.55.35-.22.77-.2,1.08.06.23.19.37.5.57.78Z"/><path class="cls-1" d="M546.26,232.27c-.77.02-1.25-.61-1.08-1.23.11-.39.57-.64.91-.46.24.12.49.3.62.52.12.21.16.54.06.75-.09.21-.39.33-.51.43Z"/><path class="cls-1" d="M535.55,230.11c0,.43-.29.74-.71.76-.56.02-1-.48-.96-1.09.03-.37.42-.72.79-.7.49.03.86.46.87,1.04Z"/><path class="cls-1" d="M517.97,58.63c-.06.86-.79,1.32-1.47,1.08-.24-.08-.4-.45-.3-.7.21-.51.58-.87,1.13-.85.25.01.48.33.65.46Z"/><path class="cls-1" d="M521.73,225.38c-.08-.04-.35-.09-.45-.24-.17-.27-.29-.61-.35-.93-.07-.41.43-.72.8-.56.46.21.67.58.75,1.05.05.31-.26.64-.76.68Z"/><path class="cls-1" d="M503.26,31.5c.57,0,.97.34.93.75-.05.46-.61.91-1.08.86-.47-.05-.88-.49-.84-.9.04-.43.45-.72.99-.71Z"/><path class="cls-1" d="M543.54,222.69c-.11.13-.25.39-.46.52-.15.09-.44.05-.62-.03-.39-.17-.62-.52-.55-.94.04-.24.21-.51.41-.65.13-.09.43-.03.61.05.39.17.59.5.61,1.06Z"/><path class="cls-1" d="M540.39,218.32c.83-.03,1.37.71,1.1,1.38-.05.13-.24.31-.35.3-.31-.03-.67-.09-.91-.26-.34-.25-.41-.67-.23-1.06.08-.17.3-.28.39-.36Z"/><path class="cls-1" d="M590.35,118.36c-.46.03-.99-.45-.99-.96,0-.18.18-.49.32-.51.31-.06.68-.05.97.07.21.09.41.38.47.62.07.3-.44.76-.77.77Z"/><path class="cls-1" d="M604.18,117.27c.48-.02.89.35.9.81,0,.43-.28.78-.69.83-.52.06-1.01-.3-1.11-.82-.07-.39.37-.79.9-.81Z"/><path class="cls-1" d="M588.63,121.27c.45-.02.94.35.99.74.05.4-.38.86-.82.88-.54.02-1.01-.42-.98-.91.02-.35.42-.69.81-.7Z"/><path class="cls-1" d="M596.7,129.52c.46-.35.95-.32,1.44-.12.44.17.54.79.18,1.12-.31.28-.67.45-1.08.24-.5-.26-.78-.65-.54-1.24Z"/><path class="cls-1" d="M591.18,129.54c-.03.41-.53.82-.96.78-.51-.04-.91-.53-.86-1.06.03-.34.35-.59.72-.56.62.05,1.13.44,1.1.84Z"/><path class="cls-1" d="M525.28,214.88c-.46,0-.74-.36-.71-.91.03-.46.3-.79.67-.79.47,0,.92.45.95.95.03.4-.4.75-.91.74Z"/><path class="cls-1" d="M528.14,217.15c0-.37.33-.76.69-.81.47-.06.93.36.96.91.03.48-.36.98-.73.92-.5-.08-.92-.53-.92-1.02Z"/><path class="cls-1" d="M536.11,220.35c-.54.03-.91-.34-.93-.92-.01-.44.25-.79.63-.84.5-.06.96.31,1.04.85.07.47-.26.88-.73.91Z"/><path class="cls-1" d="M511.99,49.7c.51.03.83.39.77.87-.06.47-.36.69-.95.67-.49-.01-.77-.25-.77-.65,0-.55.4-.92.96-.88Z"/><path class="cls-1" d="M467.94,254.9c.04.4-.27.75-.68.78-.52.04-.93-.31-1.02-.87-.06-.4.2-.79.59-.86.55-.1,1.06.33,1.11.95Z"/><path class="cls-1" d="M465.39,259.27c-.09-.06-.31-.15-.43-.31-.12-.17-.18-.4-.21-.61-.05-.35.03-.72.39-.81.22-.06.51.09.74.19.14.06.24.23.32.36.31.49-.09,1.16-.82,1.18Z"/><path class="cls-1" d="M456.49,247.3c-.28-.29-.61-.48-.69-.75-.09-.27.05-.63.1-.94,0-.04.08-.1.12-.1.26,0,.57-.06.77.06.42.25.57.77.35,1.16-.12.21-.38.34-.65.57Z"/><path class="cls-1" d="M465.18,247.35c-.16.13-.37.43-.63.48-.51.1-1.04-.51-.95-1.11.03-.21.31-.49.52-.55.53-.14,1.04.4,1.06,1.18Z"/><path class="cls-1" d="M602.47,127.14c-.15.12-.36.41-.63.48-.45.11-.87-.18-1.07-.61-.04-.09-.03-.22-.01-.32.07-.36.54-.51,1.14-.38.36.08.63.38.57.84Z"/><path class="cls-1" d="M526.38,230.15c.04.39-.28.74-.71.75-.51.02-.9-.37-.96-.95-.03-.31.23-.68.53-.75.52-.12,1.07.34,1.14.95Z"/><path class="cls-1" d="M469.07,249.19c-.16.13-.38.45-.65.5-.55.1-1.05-.53-.98-1.1.04-.31.42-.6.73-.56.55.07.97.54.91,1.17Z"/><path class="cls-1" d="M609.41,116.15c.55-.04,1.1.37,1.09.8-.01.38-.48.81-.91.83-.4.02-.86-.41-.88-.84-.02-.37.33-.77.71-.79Z"/><path class="cls-1" d="M607.09,108.61c.65-.03,1.09.38,1.07.99-.01.35-.31.65-.64.64-.61-.02-1.1-.47-1.09-1.02,0-.33.29-.59.66-.61Z"/><path class="cls-1" d="M532.95,215.35c.68-.07,1.11.3,1.13.85.01.34-.03.69-.43.79-.54.13-1.14-.35-1.1-.93.02-.27.29-.52.4-.71Z"/><path class="cls-1" d="M529.47,229.58c-.11.14-.23.44-.44.54-.35.16-.64-.08-.86-.35-.07-.09-.11-.2-.14-.3-.15-.45,0-.91.32-1.01.52-.17,1.05.15,1.13.69.02.11,0,.22,0,.44Z"/><path class="cls-1" d="M535.37,226.71c-.05.11-.09.28-.2.39-.3.3-.74.31-1.06.06-.32-.24-.45-.69-.25-1.04.07-.13.25-.26.38-.27.5-.04,1.04.38,1.13.87Z"/><path class="cls-1" d="M595.3,114.39c.14.07.49.2.78.41.27.2.25.65.02.89-.2.2-.44.32-.74.2-.38-.15-.65-.4-.78-.79-.1-.31.14-.68.72-.71Z"/><path class="cls-1" d="M461.37,245.32c-.17.12-.41.41-.67.44-.63.06-1.09-.76-.76-1.31.1-.16.36-.3.54-.3.51.01.91.52.88,1.17Z"/><path class="cls-1" d="M606.25,120.56c.68.02,1.18.42,1.2.86.01.3-.31.61-.65.63-.57.03-1.08-.36-1-.83.05-.26.32-.48.45-.65Z"/><path class="cls-1" d="M506.46,35.18c.44-.03.79.27.77.66-.02.49-.34.78-.87.79-.47,0-.82-.23-.9-.58-.09-.42.37-.83.99-.86Z"/><path class="cls-1" d="M590.59,132.91c.34.1.62.14.87.25.35.15.46.69.23.99-.23.29-.66.39-1.05.23-.39-.15-.65-.53-.53-.91.07-.22.32-.38.49-.57Z"/><path class="cls-1" d="M582.65,124.59c-.16.13-.37.43-.62.47-.53.08-1.12-.55-1.02-1.03.06-.31.32-.43.62-.43.61,0,1,.33,1.02.99Z"/><path class="cls-1" d="M518.07,213.2c.25.16.57.28.74.52.25.34.15.74-.1,1.07-.08.11-.29.17-.44.17-.37,0-.66-.2-.73-.54-.06-.29-.01-.63.06-.93.02-.1.25-.16.47-.29Z"/><path class="cls-1" d="M515.92,227.91c-.56-.05-.93-.46-.83-1.03.04-.23.26-.49.47-.61.13-.07.48.03.59.17.2.24.35.56.42.87.07.33-.3.64-.64.61Z"/><path class="cls-1" d="M524.27,64.38c.02.69-.39,1.11-.92,1.07-.36-.02-.65-.19-.73-.56-.09-.43.61-1.04,1.13-.93.22.04.39.31.51.42Z"/><path class="cls-1" d="M458.43,254.65c.68.05,1.05.5.97,1.04-.05.35-.37.62-.69.59-.46-.04-.84-.57-.71-1.13.05-.21.32-.38.44-.5Z"/><path class="cls-1" d="M596.22,125.7c.02.52-.29.89-.67.88-.49-.02-.89-.36-.93-.8,0-.1.02-.24.09-.31.27-.27.89-.33,1.26-.11.12.08.18.26.24.34Z"/><path class="cls-1" d="M387.02,209.9c-.07.1-.15.33-.31.44-.44.32-1,.2-1.28-.27-.18-.3-.26-.66.04-.89.18-.14.51-.17.74-.13.39.07.72.28.8.85Z"/><path class="cls-1" d="M529.74,225.5c-.24-.16-.55-.29-.73-.52-.22-.29-.11-.85.14-1.06.07-.06.2-.1.3-.09.62.06,1.07.84.77,1.35-.07.12-.26.18-.48.31Z"/><path class="cls-1" d="M586.04,121.55c-.62.03-.97-.28-1.03-.79-.03-.26.22-.6.47-.57.26.03.54.1.77.22.25.14.44.4.26.69-.13.21-.37.36-.47.45Z"/><path class="cls-1" d="M579.7,137.41c-.11-.06-.41-.14-.56-.34-.14-.19-.2-.52-.14-.75.03-.13.36-.25.57-.26.36-.02.65.16.82.49.18.34-.14.87-.69.87Z"/><path class="cls-1" d="M585.66,137.78c.04.36-.3.7-.73.72-.5.02-.85-.24-.95-.71-.07-.32.2-.65.54-.69.58-.07,1.09.24,1.14.68Z"/><path class="cls-1" d="M521.61,60.69c.13.09.43.2.45.33.03.24-.07.54-.21.73-.11.15-.38.22-.59.24-.34.03-.69-.29-.7-.59,0-.33.19-.51.48-.61.16-.05.33-.06.58-.11Z"/><path class="cls-1" d="M577.29,131.08c-.3-.14-.58-.22-.77-.39-.13-.12-.2-.38-.19-.57,0-.12.2-.3.33-.32.26-.04.55-.03.8.04.28.08.5.35.39.64-.08.22-.35.38-.56.6Z"/><path class="cls-1" d="M573.94,139.85c-.66-.07-1.08-.53-.91-.9.07-.16.33-.33.51-.34.54-.03,1,.39.86.76-.08.22-.34.36-.46.48Z"/><path class="cls-1" d="M516.95,36.61c-.62,0-1.17-.41-1.22-.9-.05-.52.5-1.02,1.09-1,.56.03,1.08.56,1.04,1.09-.03.43-.46.81-.91.81Z"/><path class="cls-1" d="M520.67,41.41c-.13-.04-.38-.05-.54-.18-.2-.16-.45-.41-.45-.63,0-.19.29-.41.5-.56.17-.12.41-.17.62-.22.5-.11.93.16,1.01.6.08.41-.25.84-.73.94-.11.02-.22.02-.41.05Z"/><path class="cls-1" d="M517.13,38.01c.54,0,.94.36.95.79,0,.35-.3.73-.7.8-.21.04-.45.05-.65,0-.32-.09-.6-.27-.65-.66-.05-.38.2-.73.62-.85.16-.04.32-.05.43-.07Z"/><path class="cls-1" d="M521.53,44.83c-.05.1-.09.24-.17.28-.3.13-.61.28-.93.32-.43.05-.86-.24-.91-.59-.03-.2.03-.47.16-.62.26-.31.63-.54,1.04-.34.29.14.52.4.76.63.06.06.03.21.04.32Z"/><path class="cls-1" d="M510.62,29.09c-.06.51-.46.85-.91.85-.52,0-.93-.27-1-.69-.02-.15,0-.34.08-.47.38-.6,1.26-.65,1.68-.09.09.12.11.3.14.4Z"/><path class="cls-1" d="M525.84,42.09c.09.02.28,0,.4.09.17.12.38.31.39.48,0,.24-.13.5-.27.71-.08.11-.28.17-.44.2-.58.1-1.13-.21-1.16-.65-.04-.46.41-.83,1.09-.83Z"/><path class="cls-1" d="M513.35,30.56c.37.02.65.3.65.64-.01.64-.45,1.07-1.06,1.04-.4-.02-.73-.36-.75-.76-.03-.56.46-.95,1.16-.92Z"/><path class="cls-1" d="M525.59,47.19c.48.02.82.27.85.64.04.5-.47.94-1,.88-.5-.06-.88-.45-.85-.87.03-.44.39-.67,1-.65Z"/><path class="cls-1" d="M529.9,49.51c.2.04.39.03.52.12.17.12.39.29.42.46.02.17-.13.45-.29.54-.33.18-.71.29-1.08.36-.3.05-.71-.31-.71-.58,0-.36.19-.64.53-.77.2-.08.43-.09.61-.12Z"/><path class="cls-1" d="M536.1,62.77c-.11-.07-.37-.17-.53-.35-.18-.2.03-.66.33-.82.35-.18.75-.28,1.07,0,.13.11.2.4.15.57-.12.41-.46.59-1.03.59Z"/><path class="cls-1" d="M538.32,64.82c.41.01.69.24.68.55,0,.47-.38.77-.89.73-.36-.03-.63-.19-.68-.58-.06-.44.3-.72.89-.7Z"/><path class="cls-1" d="M534.32,55.51c-.11.33-.11.55-.22.62-.21.15-.47.27-.73.33-.35.08-.73-.16-.79-.44-.06-.27.19-.64.55-.71.26-.05.54-.02.8.02.16.02.3.13.39.18Z"/><path class="cls-1" d="M596.44,50.73c.24.04.41.06.57.1.56.17.81.56.64.99-.17.4-.69.58-1.15.4-.43-.17-.71-.72-.51-1.1.09-.17.32-.28.45-.39Z"/><path class="cls-1" d="M571.33,92.03c.03-.45.35-.66.73-.83.28-.12.56-.14.76.1.13.16.28.45.22.57-.15.27-.4.53-.67.68-.31.16-.66.06-.91-.22-.07-.08-.09-.19-.13-.3Z"/><path class="cls-1" d="M595.81,56c-.16.16-.34.45-.6.57-.33.16-.65-.05-.87-.31-.22-.26-.31-.58-.14-.92.05-.1.11-.2.2-.25.46-.26,1.34.23,1.42.91Z"/><path class="cls-1" d="M592.63,62.37c-.69-.04-1.13-.5-1.08-.97.03-.31.38-.58.71-.56.58.04,1.05.49.9.94-.09.26-.39.45-.53.6Z"/><path class="cls-1" d="M588.22,65.65c-.04.1-.06.22-.13.3-.32.33-.74.33-1.09.15-.21-.11-.38-.4-.46-.65-.1-.3.21-.69.53-.75.54-.1,1.15.4,1.16.95Z"/><path class="cls-1" d="M596.53,46.85c.49-.02.98-.13,1.44.16.29.18.5.6.32.83-.15.19-.41.38-.64.41-.56.07-.9-.21-1.04-.8-.05-.21-.02-.44-.02-.66,0,0-.06.06-.06.06Z"/><path class="cls-1" d="M589.82,69.09c.03.42-.24.8-.6.84-.48.05-.96-.39-.97-.9,0-.29.3-.59.65-.64.49-.07.89.23.93.69Z"/><path class="cls-1" d="M599.8,43.65c.28.07.53.07.7.19.2.14.41.37.47.6.08.31-.25.61-.6.66-.43.06-.79-.07-.97-.47-.09-.18-.14-.46-.06-.63.07-.16.32-.25.48-.35Z"/><path class="cls-1" d="M583.59,79.44c-.13-.1-.44-.24-.61-.48-.24-.33.05-.84.45-.81.26.02.54.09.77.2.25.12.48.37.33.65-.11.2-.4.3-.62.44-.04.02-.11,0-.33,0Z"/><path class="cls-1" d="M585.18,73.45c-.15.07-.33.24-.52.25-.57.03-1.08-.37-1.05-.85,0-.17.23-.42.39-.46.53-.14,1.02.15,1.21.65.03.09,0,.22-.02.42Z"/><path class="cls-1" d="M575.82,89.63c.42.01.68.22.72.56.05.45-.35.77-.91.73-.45-.03-.8-.39-.73-.75.07-.36.41-.56.93-.54Z"/><path class="cls-1" d="M580.14,83.31c-.3.23-.52.53-.77.55-.28.02-.61-.18-.84-.38-.31-.26-.14-.85.26-.9.3-.04.65.02.93.14.16.06.24.32.42.59Z"/><path class="cls-1" d="M574.89,88.3c-.11.1-.26.35-.48.44-.39.16-.76,0-1.03-.32-.07-.07-.1-.2-.11-.3-.02-.32.35-.59.84-.62.45-.03.79.26.78.8Z"/><path class="cls-1" d="M589.68,60.78c-.58.05-.86-.17-1.04-.56-.14-.31.1-.72.44-.7.26.02.55.08.77.22.15.1.29.4.24.54-.07.22-.31.38-.42.5Z"/><path class="cls-1" d="M578.18,66.95c.03.39-.27.82-.61.89-.6.11-1.34-.56-1.33-1.21,0-.3.32-.63.64-.68.64-.09,1.26.38,1.3,1Z"/><path class="cls-1" d="M582.3,59.8c-.13.1-.32.37-.54.4-.65.08-1.25-.43-1.25-1.07,0-.21.24-.57.43-.61.65-.15,1.37.49,1.36,1.28Z"/><path class="cls-1" d="M571.15,78.21c.39,0,.84.3.89.61.06.37-.38.82-.85.86-.44.04-.93-.4-.89-.79.04-.34.46-.67.85-.68Z"/><path class="cls-1" d="M574.88,72.37c.32.11.54.16.73.26.45.23.58.59.36.95-.23.37-.67.57-1,.34-.25-.18-.52-.49-.55-.76-.02-.24.28-.51.46-.78Z"/><path class="cls-1" d="M568.54,46.13c-.13.17-.26.48-.47.56-.29.12-.66.11-.97.05-.16-.03-.35-.29-.38-.47-.07-.36.22-.7.66-.87.38-.15.81-.02,1.03.32.06.09.07.21.14.41Z"/><path class="cls-1" d="M569.27,35.43c.42-.02.84.31.83.65,0,.4-.43.81-.89.85-.4.04-.81-.3-.82-.67,0-.44.38-.81.88-.84Z"/><path class="cls-1" d="M569.33,40.87c-.06.16-.08.35-.17.47-.32.39-.76.52-1.19.29-.2-.11-.38-.4-.42-.64-.03-.15.2-.46.35-.49.36-.07.75-.05,1.13,0,.11.01.2.24.31.38Z"/><path class="cls-1" d="M561.84,41.25c-.17.96-.42,1.27-1.02,1.32-.37.03-.78-.26-.87-.62-.09-.38.13-.77.54-.9.44-.13.87-.14,1.35.2Z"/><path class="cls-1" d="M563.02,36.58c.05.45-.29.82-.8.88-.51.06-.95-.22-.98-.65-.03-.48.26-.8.8-.87.53-.08.93.18.98.64Z"/><path class="cls-1" d="M563.1,33.39c-.19-.16-.49-.29-.55-.49-.06-.21.05-.55.21-.73.17-.19.46-.28.72-.36.33-.09.68.13.78.45.11.36.02.68-.31.86-.23.13-.52.17-.86.27Z"/><path class="cls-1" d="M552.25,190.02c-.8.08-1.42-.55-1.35-1.23.05-.48.56-.76.98-.54.49.25.77.65.72,1.19-.02.22-.26.43-.35.57Z"/><path class="cls-1" d="M575.94,191c-.54.01-1.05-.52-1.03-1.07.01-.38.37-.77.72-.77.53-.01,1.08.46,1.14.99.05.39-.4.85-.83.85Z"/><path class="cls-1" d="M575.83,187.37c-.04.44-.48.84-.92.84-.5,0-.83-.46-.78-1.09.04-.55.41-.93.83-.85.51.1.91.61.86,1.1Z"/><path class="cls-1" d="M545.83,188.66c.46-.02.94.45.96.97.02.39-.33.8-.68.79-.48,0-.92-.43-.98-.95-.04-.35.34-.79.69-.81Z"/><path class="cls-1" d="M538.36,191.74c-.61-.05-1.08-1.03-.75-1.58.14-.24.6-.33.91-.19.48.22.72.6.65,1.04-.05.35-.49.75-.8.73Z"/><path class="cls-1" d="M538.21,193.73c0,.45-.35.9-.76.95-.48.06-.97-.49-.99-1.09-.01-.4.32-.73.73-.72.58.01,1.01.38,1.02.86Z"/><path class="cls-1" d="M544.77,194.17c.04-.32.52-.61.93-.56.47.06.85.46.85.9,0,.44-.5.84-.93.76-.47-.08-.91-.65-.85-1.1Z"/><path class="cls-1" d="M559.01,191.04c-.04.41-.41.75-.8.72-.53-.05-.96-.52-.94-1.01.02-.38.41-.72.81-.7.55.02.97.48.92,1Z"/><path class="cls-1" d="M565.64,191.27c-.12.12-.27.39-.49.46-.57.18-1.21-.23-1.24-.8-.02-.24.12-.56.29-.73.11-.11.44-.1.63-.04.49.16.78.54.81,1.12Z"/><path class="cls-1" d="M551.04,193.79c-.31-.24-.62-.39-.8-.63-.21-.27-.21-.63,0-.95.03-.05.08-.08.13-.11.26-.2.52-.16.78,0,.49.3.73.71.53,1.1-.11.22-.38.36-.63.6Z"/><path class="cls-1" d="M591.72,184.31c.03.39-.32.74-.73.74-.54,0-.88-.44-.9-1.17-.01-.37.25-.66.59-.65.56.01.99.47,1.04,1.09Z"/><path class="cls-1" d="M568.95,188.63c-.19-.14-.49-.29-.68-.53-.26-.33-.2-.77.07-1.07.04-.04.08-.08.13-.1.35-.19.92.14,1.17.68.18.38,0,.82-.41.95-.05.02-.11.03-.29.08Z"/><path class="cls-1" d="M579.71,188.13c-.27.28-.45.55-.7.72-.27.18-.53-.01-.71-.22-.14-.16-.26-.36-.31-.56-.08-.35.03-.7.36-.83.21-.08.55-.04.74.09.24.17.39.48.62.79Z"/><path class="cls-1" d="M585.29,186.88c-.04.36-.41.6-.87.56-.51-.04-.77-.37-.72-.9.04-.42.39-.75.75-.71.5.06.89.55.84,1.05Z"/><path class="cls-1" d="M543.27,192.53c-.05.22-.04.4-.09.42-.29.12-.6.27-.9.28-.34.01-.65-.19-.73-.56-.07-.33-.09-.68.23-.91.33-.24.66-.1.91.11.24.2.42.48.58.67Z"/><path class="cls-1" d="M571.87,189.99c0,.41-.32.78-.7.81-.55.05-1.04-.48-.99-1.08.03-.32.35-.62.67-.63.53,0,1.02.42,1.01.9Z"/><path class="cls-1" d="M586.86,185.19c-.09.1-.18.27-.31.34-.35.2-.83.09-1.06-.22-.24-.32-.27-.81-.03-1.09.09-.11.28-.2.43-.2.54-.01,1.04.58.97,1.16Z"/><path class="cls-1" d="M528.71,191.96c.64,0,1.04.33,1.08.77.03.33-.3.7-.6.67-.57-.05-1.07-.53-.93-.96.07-.22.34-.37.45-.49Z"/><path class="cls-1" d="M573.29,182.15c-.58,0-1-.27-1.17-.69-.17-.41-.08-.9.2-1.09.28-.19.81-.16,1.11.1.17.14.31.33.43.51.17.25.25.54.03.78-.18.19-.44.3-.59.4Z"/><path class="cls-1" d="M576.49,178.06c0,.69-.36,1.11-.78,1.13-.36,0-.74-.28-.86-.66-.02-.05-.03-.11-.04-.16-.07-.4-.06-.82.32-1.03.2-.11.59-.11.77.01.29.2.47.55.59.71Z"/><path class="cls-1" d="M581.6,178.84c-.02.36-.42.7-.81.68-.72-.04-1.19-.79-.86-1.44.09-.17.31-.35.5-.38.54-.09,1.21.59,1.18,1.13Z"/><path class="cls-1" d="M571.15,175.91c.5-.03.8.19,1.01.56.2.35.37.75.04,1.08-.17.16-.51.28-.73.23-.71-.16-1.02-.96-.65-1.6.07-.13.25-.2.34-.27Z"/><path class="cls-1" d="M557.7,180.17c-.11-.03-.28-.04-.42-.12-.52-.26-.67-.72-.61-1.26.02-.14.14-.32.26-.4.37-.25,1.06.13,1.33.71.16.34-.02.85-.35,1-.05.02-.1.03-.21.07Z"/><path class="cls-1" d="M565.52,177.87c-.5,0-.89-.48-.85-1.04.02-.4.39-.83.69-.82.53.02,1.03.61.97,1.15-.04.38-.43.72-.81.71Z"/><path class="cls-1" d="M561.14,178.35c.65.04,1.23.54,1.31,1.01.06.35-.24.78-.61.87-.36.08-.68-.01-.84-.36-.13-.3-.25-.64-.24-.95.01-.21.27-.41.38-.57Z"/><path class="cls-1" d="M539.79,181.63c-.02.39-.41.71-.81.66-.58-.07-1.07-.65-.99-1.15.04-.26.45-.58.75-.58.59,0,1.08.5,1.06,1.06Z"/><path class="cls-1" d="M586.93,179.6c-.16.13-.38.42-.66.5-.2.05-.62-.12-.7-.29-.15-.33-.17-.74-.14-1.11.01-.13.32-.33.5-.33.58,0,1.08.57,1,1.24Z"/><path class="cls-1" d="M570.16,179.65c.03.42-.39.85-.83.84-.48,0-.86-.43-.9-1-.03-.44.25-.84.6-.84.55,0,1.08.47,1.13,1Z"/><path class="cls-1" d="M532.93,182.35c.74.03,1.16.54,1.1,1.14-.04.32-.37.62-.68.63-.52,0-1.03-.58-.92-1.16.05-.26.37-.46.5-.61Z"/><path class="cls-1" d="M545.45,178.57c-.04.41-.41.69-.84.64-.53-.06-.89-.54-.83-1.08.04-.41.43-.7.84-.64.54.08.89.54.83,1.08Z"/><path class="cls-1" d="M565.92,182.39c-.28-.17-.54-.27-.71-.45-.28-.3-.34-.69-.17-1.07.04-.09.15-.17.24-.21.33-.15.68-.11.92.14.26.27.55.61.32,1.02-.12.21-.36.36-.6.58Z"/><path class="cls-1" d="M551.89,179.06c-.24.23-.36.44-.53.51-.54.2-1.06-.03-1.25-.53-.13-.33-.1-.68.21-.92.26-.2.55-.13.77.06.27.24.5.54.8.88Z"/><path class="cls-1" d="M547.03,181.32c.63.07,1.07.53,1.01,1.04-.02.19-.18.42-.35.52-.32.2-.78.04-1.03-.31-.2-.29-.32-.62-.07-.93.13-.16.33-.25.43-.32Z"/><path class="cls-1" d="M553.87,180.73c-.03.47-.56.76-.98.54-.43-.22-.68-.79-.5-1.26.06-.16.31-.33.49-.34.61-.03,1.03.45.99,1.05Z"/><path class="cls-1" d="M397.9,263.82c.7.01,1.31.75,1.16,1.38-.04.18-.26.38-.44.44-.38.13-.91-.14-1.11-.51-.2-.37-.23-.75.05-1.09.09-.12.26-.17.34-.22Z"/><path class="cls-1" d="M400.7,263.39c-.48.01-.85-.34-.95-.84-.08-.39.13-.86.44-.98.05-.02.1-.03.16-.03.4-.02.8.3.96.77.12.35.03.65-.24.89-.12.1-.28.15-.36.19Z"/><path class="cls-1" d="M410.15,270.08c-.47,0-.84-.36-.87-.85-.03-.41.27-.83.63-.87.5-.06.94.39.95.95,0,.44-.31.78-.71.78Z"/><path class="cls-1" d="M396.24,257.97c.35.27.7.44.91.72.14.19.12.54.07.79-.04.18-.22.45-.38.47-.24.04-.58-.02-.74-.17-.32-.32-.48-.75-.3-1.21.07-.18.24-.33.44-.6Z"/><path class="cls-1" d="M402.69,266.79c.49-.03.96.42.96.92,0,.37-.38.76-.74.75-.4,0-.8-.4-.86-.86-.05-.39.26-.79.64-.81Z"/><path class="cls-1" d="M414.01,276.05c-.69,0-1.04-.29-1.08-.77-.03-.41.33-.81.69-.77.57.07,1.06.52.92.96-.08.26-.4.44-.53.57Z"/><path class="cls-1" d="M404.6,264.5c.62.07,1.07.61,1.03,1.08-.03.37-.44.69-.84.65-.51-.05-.89-.56-.72-1.1.09-.27.38-.46.53-.63Z"/><path class="cls-1" d="M405.72,271.33c.37.04.66.41.65.83,0,.37-.47.76-.79.67-.33-.09-.59-.54-.55-.94.03-.34.36-.61.69-.57Z"/><path class="cls-1" d="M396.51,250.06c-.04.62-.45,1.03-.87,1.04-.34.01-.72-.3-.78-.72-.04-.26-.04-.55.02-.81.12-.55.77-.75,1.16-.33.24.26.38.63.48.82Z"/><path class="cls-1" d="M410.53,261.32c-1.08-.65-1.27-1-1-1.72.14-.38.59-.56.96-.38.67.32.86.82.53,1.51-.09.19-.28.34-.49.6Z"/><path class="cls-1" d="M413.86,264.13c0,.42-.32.75-.74.74-.56,0-.93-.47-.94-1.17,0-.33.28-.75.53-.77.58-.05,1.14.54,1.15,1.19Z"/><path class="cls-1" d="M405.42,255.38c.53.04.99.61.95,1.16-.03.44-.43.81-.89.82-.53.01-.86-.51-.77-1.21.06-.45.37-.79.71-.76Z"/><path class="cls-1" d="M401.97,252.68c.03.49-.31.9-.78.92-.41.02-.75-.25-.85-.67-.01-.05-.03-.11-.04-.17-.07-.54.18-1.04.55-1.1.52-.09,1.08.42,1.12,1.02Z"/><path class="cls-1" d="M391.14,248.02c-.06.1-.13.32-.27.47-.24.25-.52.12-.76-.04-.34-.22-.63-.5-.63-.93,0-.2.07-.5.21-.58.21-.12.54-.18.76-.1.43.16.65.6.69,1.18Z"/><path class="cls-1" d="M511.28,111.89c-.3.54-.67.75-1.13.82-.54.08-1-.25-1.09-.78-.07-.41.28-.82.78-.89.69-.11,1.2.1,1.44.86Z"/><path class="cls-1" d="M508.64,97.89c.22.19.56.4.74.7.11.18-.03.51-.06.76,0,.05-.05.1-.09.14-.34.48-.78.71-1.1.55-.31-.16-.51-.42-.55-.78-.07-.58.14-1.02.61-1.25.09-.05.21-.06.45-.12Z"/><path class="cls-1" d="M514.9,111.07c.64.03,1.12.51,1.04,1.04-.07.47-.61.92-1.06.88-.49-.05-.86-.64-.79-1.27.04-.41.36-.66.81-.64Z"/><path class="cls-1" d="M516.77,113.59c.71,0,1.23.47,1.19,1.09-.03.46-.41.77-.92.76-.65-.02-1-.4-.98-1.08.01-.43.32-.76.71-.77Z"/><path class="cls-1" d="M503.31,96.46c.6.29,1.11.5,1.58.78.15.09.29.42.23.57-.08.23-.3.46-.52.58-.17.09-.45.07-.65,0-.56-.2-.95-.62-1.02-1.22-.03-.2.21-.43.37-.72Z"/><path class="cls-1" d="M511.91,104.8c-.02.43-.55.94-1.01.98-.44.03-.89-.51-.87-1.03.02-.49.41-.87.85-.85.55.03,1.05.48,1.03.91Z"/><path class="cls-1" d="M507.91,109.24c0,.06,0,.12-.03.17-.18.45-.73.68-1.29.55-.46-.11-.79-.52-.72-.99.03-.2.16-.45.32-.55.54-.33,1.48.06,1.69.66.02.05.01.11.02.16Z"/><path class="cls-1" d="M511.96,115.77c-.78-.01-1.21-.73-.92-1.32.06-.13.21-.27.35-.31.59-.17,1.08.02,1.48.47.22.25.17.71-.13.86-.29.15-.6.23-.78.29Z"/><path class="cls-1" d="M518.09,120.82c-.42-.03-.8-.47-.81-.94,0-.41.5-.78.97-.72.47.06.86.49.82.92-.04.42-.5.77-.98.74Z"/><path class="cls-1" d="M513.87,118.88c-.47-.02-.97-.46-.98-.94,0-.19.13-.48.27-.55.27-.12.63-.21.91-.14.38.09.63.42.67.85.04.41-.4.8-.87.78Z"/><path class="cls-1" d="M504.83,103.31c.47.05.89.14.97.59.04.22-.09.55-.27.71-.38.34-.86.33-1.23.05-.13-.1-.24-.24-.32-.38-.21-.36.01-.84.41-.92.16-.03.33-.04.43-.05Z"/><path class="cls-1" d="M517.23,121.26c.57,0,1.16.55,1.12,1.04-.03.32-.45.61-.88.62-.57.01-.98-.36-.99-.91,0-.38.37-.75.76-.74Z"/><path class="cls-1" d="M501.73,91.45c-.05.44-.62.72-1.03.5-.46-.25-.67-.76-.5-1.28.04-.13.22-.28.35-.3.63-.1,1.25.48,1.18,1.08Z"/><path class="cls-1" d="M513.77,109.53c-.72-.06-1.17-.57-1.09-1.14.04-.31.27-.48.57-.48.58,0,1.15.52,1.04,1.02-.06.25-.38.45-.52.6Z"/><path class="cls-1" d="M521.45,130.31c-.28-.16-.48-.26-.65-.39-.08-.06-.13-.19-.13-.29-.03-.35.37-.7.92-.82.33-.07.74.11.83.41.04.15.04.39-.04.47-.28.24-.61.42-.92.62Z"/><path class="cls-1" d="M523.82,132.75c-.15.19-.27.49-.48.57-.28.11-.64.11-.94.05-.17-.03-.38-.27-.41-.45-.04-.17.07-.44.2-.58.36-.37.95-.4,1.33-.09.12.09.17.27.3.49Z"/><path class="cls-1" d="M520.12,125.92c-.69.05-1.13-.51-.91-1.11.05-.13.22-.27.36-.3.45-.08.84.16,1.07.62.12.24.04.44-.15.59-.12.1-.28.15-.37.2Z"/><path class="cls-1" d="M498.91,96.84c.09.1.31.24.35.42.07.38-.21.65-.53.74-.23.07-.51-.05-.76-.12-.06-.02-.12-.19-.11-.29.06-.44.52-.8,1.06-.75Z"/><path class="cls-1" d="M509.48,115.02c-.04.1-.07.22-.14.29-.25.25-.57.38-.91.24-.18-.07-.41-.26-.43-.42-.02-.13.21-.42.36-.44.31-.05.64.02.95.07.07.01.11.17.16.26Z"/><path class="cls-1" d="M500.17,100.56c.27-.26.44-.47.66-.59.09-.05.31.04.43.13.32.24.39.64.15.84-.45.37-.8.12-1.24-.38Z"/><path class="cls-1" d="M523.99,114.95c-.77,0-1.26-.35-1.39-.89-.09-.4.13-.82.5-.94.53-.18,1.09.05,1.37.63.11.22.13.56.03.78-.1.21-.39.33-.51.42Z"/><path class="cls-1" d="M525.29,111.83c-.45,0-.92-.3-1-.75-.04-.23.07-.55.22-.74.24-.29.59-.26.93-.11.4.17.64.46.67.89.02.32-.45.71-.82.71Z"/><path class="cls-1" d="M524.24,106.33c.61-.05,1.14.37,1.19.93.03.35-.36.72-.77.72-.59,0-1.02-.33-1.09-.84-.06-.39.27-.78.68-.81Z"/><path class="cls-1" d="M525.08,119.7c-.31-.15-.58-.24-.78-.4-.35-.28-.42-.78-.18-1.05.24-.27.54-.39.9-.26.16.06.32.12.45.21.3.2.52.5.33.84-.15.26-.46.43-.73.65Z"/><path class="cls-1" d="M525.18,101.93c-.2.29-.3.57-.5.72-.63.49-1.35.19-1.47-.59-.11-.66.39-1.09,1-.82.33.15.6.42.97.69Z"/><path class="cls-1" d="M513.41,92.54c-.02.39-.44.76-.79.64-.29-.1-.59-.29-.8-.52-.29-.32-.26-.78-.01-1.05.26-.28.59-.27,1.04.01.35.22.6.48.56.93Z"/><path class="cls-1" d="M525.57,120.53c.1.01.21.01.32.04.47.11.8.41.72.79-.05.25-.22.52-.42.67-.34.25-.79.16-1.07-.16-.11-.12-.19-.28-.24-.43-.16-.5.16-.92.69-.91Z"/><path class="cls-1" d="M521.67,106.07c-.32-.17-.64-.29-.88-.49-.32-.27-.31-.72-.03-1.04.23-.27.54-.3.89-.06.18.12.41.25.49.43.1.23.13.53.06.76-.05.16-.32.25-.53.4Z"/><path class="cls-1" d="M517.95,101.72c.34-.32.71-.36,1.11-.24.36.1.59.36.6.7,0,.23-.15.52-.32.68-.27.24-.63.16-.92-.03-.42-.27-.56-.65-.46-1.11Z"/><path class="cls-1" d="M526.99,116.11c-.43.02-.71-.19-.84-.61-.13-.43.07-.78.51-.83.16-.02.33-.02.49,0,.49.1.82.51.76.92-.05.33-.39.53-.92.51Z"/><path class="cls-1" d="M517.32,97.82c.79.02,1.27.47,1.22,1.02-.03.35-.33.63-.67.62-.56-.01-1.08-.56-.98-1.12.04-.21.32-.39.43-.51Z"/><path class="cls-1" d="M518.82,91.24c-.11.1-.29.38-.48.4-.3.02-.65-.07-.92-.23-.34-.19-.42-.79-.18-1.03.25-.26.57-.33.92-.17.38.17.64.44.66,1.03Z"/><path class="cls-1" d="M521.49,95.42c-.07.07-.16.22-.28.3-.31.18-.69.22-.92-.05-.2-.22-.31-.57-.34-.87-.03-.31.26-.49.55-.52.49-.06,1.05.56,1,1.15Z"/><path class="cls-1" d="M515.99,95.36c.07.03.3.07.47.19.28.2.47.51.36.86-.05.19-.23.37-.41.48-.34.2-.63.01-.88-.24-.11-.12-.2-.26-.28-.41-.24-.44.07-.91.74-.88Z"/><path class="cls-1" d="M500.98,73.32c.52-.01,1.18.61,1.23,1.17.02.21-.32.55-.55.53-.54-.04-.95-.29-1.17-.8-.16-.36.14-.89.49-.9Z"/><path class="cls-1" d="M512.87,84.35c.51-.23.88-.22,1.21.09.25.24.3.64.11.92-.2.29-.56.36-.9.18-.49-.25-.58-.65-.41-1.19Z"/><path class="cls-1" d="M522.81,101.37c-.09.1-.17.27-.3.34-.32.17-.64.14-.91-.13-.31-.31-.43-.77-.23-1.06.09-.12.26-.25.4-.26.5-.06,1.09.57,1.04,1.11Z"/><path class="cls-1" d="M506.15,76.13c.51.03.9.47.78.8-.04.12-.24.25-.38.25-.39,0-.71-.26-.67-.58.02-.18.2-.34.27-.46Z"/><path class="cls-1" d="M32.2,540.49c-10.19,0-18.17-8.58-18.17-19.53v-.16c0-11.05,7.81-19.38,18.17-19.38,5.37,0,9.95,1.95,14.82,6.32l5.13-5.92c-4.12-3.83-9.73-7.66-19.88-7.66-15.23,0-26.73,11.52-26.73,26.8v.14c0,15.19,11.33,26.65,26.35,26.65,8.5,0,14.5-2.54,20.61-8.75l-5.09-5.15c-4.48,4.11-8.64,6.64-15.21,6.64Z"/><path class="cls-1" d="M106.59,526.76c7.86-2.24,12.2-7.73,12.2-15.44v-.15c0-4.36-1.47-8.15-4.23-11-3.42-3.33-8.55-5.1-14.84-5.1h-23v51.77h8.02v-18.51h12.67l.19.28,12.85,18.23h9.39l-14.14-19.83.89-.25ZM84.73,521.38v-19.13h14.23c7.4,0,11.64,3.44,11.64,9.45v.15c0,5.79-4.54,9.53-11.58,9.53h-14.3Z"/><rect class="cls-1" x="144.92" y="495.07" width="8.02" height="51.77"/><path class="cls-1" d="M325.69,494.16c-7.58,0-14.52,2.82-19.56,7.93-4.9,4.99-7.61,11.68-7.61,18.87v.14c0,15.19,11.62,26.65,27.02,26.65,7.58,0,14.53-2.82,19.57-7.93,4.91-4.98,7.62-11.68,7.62-18.86v-.16c0-15.18-11.62-26.64-27.04-26.64ZM344.26,521.1c0,11.05-7.98,19.39-18.56,19.39s-18.69-8.58-18.69-19.53v-.16c0-11.05,7.98-19.38,18.55-19.38s18.71,8.59,18.71,19.54v.14Z"/><polygon class="cls-1" points="189.31 495.07 181.3 495.07 181.3 546.84 217.22 546.84 217.22 539.66 189.31 539.66 189.31 495.07"/><polygon class="cls-1" points="249.11 495.07 241.08 495.07 241.08 546.84 277.01 546.84 277.01 539.66 249.11 539.66 249.11 495.07"/><polygon class="cls-1" points="385.84 495.07 378.17 495.07 378.17 546.84 386.04 546.84 386.04 507.81 387.21 509.33 416.29 546.84 423.12 546.84 423.12 495.07 415.26 495.07 415.26 533.03 414.09 531.51 385.84 495.07"/><polygon class="cls-1" points="494.56 495.07 486.53 495.07 486.53 546.84 522.46 546.84 522.46 539.66 494.56 539.66 494.56 495.07"/><polygon class="cls-1" points="554.35 524.24 580.97 524.24 580.97 517.21 554.35 517.21 554.35 502.1 584.39 502.1 584.39 495.07 546.33 495.07 546.33 546.84 584.76 546.84 584.76 539.81 554.35 539.81 554.35 524.24"/><path class="cls-1" d="M670.82,520.51l-1.46-.49,1.38-.71c4.86-2.53,7.23-6.21,7.23-11.24v-.15c0-3.34-1.11-6.07-3.37-8.34-2.95-2.94-7.58-4.5-13.41-4.5h-23.16v51.77h23.91c11.89,0,18.99-5.2,18.99-13.9v-.16c0-6.09-3.12-9.88-10.11-12.27ZM645.89,502.02h14.07c6.25,0,9.98,2.76,9.98,7.4v.15c0,5-3.88,7.86-10.67,7.86h-13.38v-15.41ZM672.91,531.94c0,5.05-3.97,7.94-10.89,7.94h-16.12v-15.87h15.43c7.47,0,11.58,2.76,11.58,7.78v.14Z"/><path class="cls-1" d="M735.5,526.76c7.86-2.24,12.19-7.73,12.19-15.44v-.15c0-4.36-1.46-8.16-4.22-11-3.42-3.33-8.55-5.1-14.85-5.1h-23.01v51.77h8.03v-18.51h12.67l.19.28,12.85,18.23h9.39l-14.13-19.83.89-.25ZM713.65,521.38v-19.13h14.22c7.41,0,11.65,3.44,11.65,9.45v.15c0,5.79-4.54,9.53-11.57,9.53h-14.3Z"/><path class="cls-1" d="M791.87,494.69l-22.79,52.15h8.12l5.46-12.81h25.97l5.39,12.81h8.41l-22.79-52.15h-7.78ZM785.53,527.07l.38-.91,9.7-22.65.6,1.42,9.59,22.14h-20.27Z"/><polygon class="cls-1" points="866.54 535.44 850.7 495.07 841.82 495.07 863.35 547.22 870.66 547.22 892.18 495.07 883.52 495.07 867.14 537.01 866.54 535.44"/><polygon class="cls-1" points="923.78 524.24 950.4 524.24 950.4 517.21 923.78 517.21 923.78 502.1 953.82 502.1 953.82 495.07 915.77 495.07 915.77 546.84 954.2 546.84 954.2 539.81 923.78 539.81 923.78 524.24"/><polygon class="cls-1" points="281.81 396.69 281.81 396.98 281.52 396.98 269.82 396.98 269.53 396.98 269.53 396.69 269.53 386.78 265.8 386.78 265.8 410.74 269.53 410.74 269.53 400.69 269.53 400.4 269.82 400.4 281.52 400.4 281.81 400.4 281.81 400.69 281.81 410.74 285.55 410.74 285.55 386.78 281.81 386.78 281.81 396.69"/><path class="cls-1" d="M327.3,386.37c-7.17,0-12.57,5.33-12.57,12.4s5.37,12.39,12.5,12.39,12.57-5.44,12.57-12.39v-.07c0-7.03-5.37-12.33-12.5-12.33ZM327.3,407.78c-4.84,0-8.62-3.96-8.62-9.01v-.07c0-5.1,3.68-8.94,8.55-8.94s8.63,3.96,8.63,9.02-3.68,9.01-8.56,9.01Z"/><polygon class="cls-1" points="367.22 390.21 374.72 390.21 375.01 390.21 375.01 390.49 375.01 410.74 378.77 410.74 378.77 390.49 378.77 390.21 379.06 390.21 386.55 390.21 386.55 386.78 367.22 386.78 367.22 390.21"/><polygon class="cls-1" points="418.81 407.46 418.81 407.18 418.81 400.58 418.81 400.3 419.1 400.3 431.11 400.3 431.11 397.02 419.1 397.02 418.81 397.02 418.81 396.73 418.81 390.36 418.81 390.07 419.1 390.07 432.69 390.07 432.69 386.78 415.07 386.78 415.07 410.74 432.86 410.74 432.86 407.46 419.1 407.46 418.81 407.46"/><polygon class="cls-1" points="465.68 407.39 465.68 407.1 465.68 386.78 461.94 386.78 461.94 410.74 478.57 410.74 478.57 407.39 465.96 407.39 465.68 407.39"/><path class="cls-1" d="M535.28,405.34l.14-.2c1.06-1.45,2.08-3.14,3.18-5.31l-2.75-1.45c-.83,1.73-1.67,3.24-2.52,4.5l-.2.29-.25-.25-4.2-4.28-.31-.31.41-.16c3.51-1.32,5.21-3.32,5.21-6.11v-.07c0-3.26-2.62-5.63-6.23-5.63-4.43,0-6.75,2.96-6.75,5.88v.07c0,1.7.59,3.18,1.97,4.93l.23.29-.34.15c-3.35,1.44-5.05,3.66-5.05,6.61v.07c0,3.96,3.17,6.72,7.71,6.72,2.69,0,5.09-1.02,7.34-3.12l.21-.19.2.2,3.08,3.16,2.72-1.94-3.62-3.68-.17-.17ZM527.67,389.19c1.82,0,3.09,1.26,3.09,3.06v.07c0,1.8-1.28,3.09-4.04,4.08l-.18.06-.13-.14c-1.45-1.59-1.93-2.56-1.93-3.84,0-1.97,1.31-3.3,3.19-3.3ZM530.81,405.87c-1.54,1.47-3.16,2.22-4.82,2.22-2.54,0-4.39-1.62-4.39-3.86v-.07c0-1.84,1.22-3.38,3.43-4.32l.18-.08.14.14,5.46,5.57.2.21-.21.2Z"/><path class="cls-1" d="M587.69,397.08c-4.74-1.13-6.03-2.02-6.03-4.14,0-1.95,1.76-3.27,4.28-3.27,2.18,0,4.34.79,6.59,2.41l1.99-2.79c-2.5-1.95-5.21-2.85-8.51-2.85-4.76,0-8.09,2.81-8.09,6.82,0,4.37,2.79,5.86,7.94,7.11,4.41,1.02,5.76,1.96,5.76,4.03v.07c0,2.05-1.82,3.37-4.64,3.37s-5.18-.95-7.71-3.07l-2.23,2.65c2.79,2.4,6.18,3.67,9.83,3.67,5.15,0,8.47-2.76,8.47-7.04v-.07c0-3.63-2.15-5.56-7.67-6.9Z"/><path class="cls-1" d="M633.8,386.78h-9.39v23.96h3.73v-7.89h5.16c5.79,0,9.52-3.17,9.52-8.08v-.07c0-4.81-3.54-7.91-9.03-7.91ZM639.02,394.87c0,2.79-2.24,4.67-5.57,4.67h-5.3v-9.41h5.3c3.49,0,5.57,1.75,5.57,4.67v.07Z"/><path class="cls-1" d="M683.41,386.61h-3.62l-10.54,24.13h3.78l2.45-5.75.07-.17h11.98l.07.18,2.42,5.75h3.92l-10.54-24.13ZM685.77,401.58h-8.88l.17-.4,4.2-9.81.26-.61.26.61,4.24,9.81.17.4h-.44Z"/><path class="cls-1" d="M307.61,632.69h-9.39v23.95h3.74v-7.88h5.16c5.79,0,9.52-3.18,9.52-8.09s-3.55-7.98-9.04-7.98ZM307.25,645.44h-5.29v-9.4h5.29c3.49,0,5.58,1.74,5.58,4.67s-2.24,4.73-5.58,4.73Z"/><path class="cls-1" d="M358.46,647.48l.39-.11c3.64-1.04,5.64-3.58,5.64-7.16,0-2.09-.67-3.85-1.94-5.16-1.59-1.54-3.96-2.36-6.87-2.36h-10.65v23.95h3.74v-8.55h5.83l.09.12,5.94,8.42h4.38l-6.3-8.83-.24-.33ZM349.04,644.85h-.29v-8.81h6.56c3.41,0,5.37,1.58,5.37,4.35v.07c0,2.67-2.09,4.39-5.33,4.39h-6.31Z"/><path class="cls-1" d="M405.23,632.27c-7.05,0-12.57,5.45-12.57,12.4v.07c0,7.03,5.38,12.33,12.5,12.33s12.57-5.45,12.57-12.4v-.07c0-7.03-5.38-12.33-12.5-12.33ZM413.79,644.74c0,5.09-3.68,8.94-8.56,8.94s-8.62-3.96-8.62-9.01v-.07c0-5.09,3.68-8.94,8.56-8.94s8.62,3.96,8.62,9.01v.07Z"/><polygon class="cls-1" points="456.94 651.36 456.67 652.05 456.41 651.36 449.09 632.69 444.95 632.69 454.9 656.82 458.31 656.82 468.27 632.69 464.23 632.69 456.94 651.36"/><polygon class="cls-1" points="500.31 653.36 500.31 653.08 500.31 646.49 500.31 646.21 500.59 646.21 512.61 646.21 512.61 642.92 500.59 642.92 500.31 642.92 500.31 642.63 500.31 636.26 500.31 635.97 500.59 635.97 514.19 635.97 514.19 632.69 496.57 632.69 496.57 656.64 514.35 656.64 514.35 653.36 500.59 653.36 500.31 653.36"/><polygon class="cls-1" points="560.57 649.36 560.57 650.2 560.06 649.54 547.01 632.69 543.44 632.69 543.44 656.64 547.1 656.64 547.1 639.49 547.1 638.65 547.62 639.31 561.06 656.64 564.24 656.64 564.24 632.69 560.57 632.69 560.57 649.36"/><path class="cls-1" d="M605.74,653.68c-4.7,0-8.38-3.96-8.38-9.01v-.07c0-5.09,3.6-8.94,8.38-8.94,2.48,0,4.6.9,6.85,2.92l2.39-2.76c-1.92-1.79-4.53-3.55-9.2-3.55-7.05,0-12.37,5.33-12.37,12.4v.07c0,7.03,5.24,12.33,12.19,12.33,3.93,0,6.71-1.18,9.55-4.06l-2.37-2.41c-2.08,1.9-4.02,3.07-7.04,3.07Z"/><polygon class="cls-1" points="647.77 653.36 647.48 653.36 647.48 653.08 647.48 646.49 647.48 646.21 647.77 646.21 659.79 646.21 659.79 642.92 647.77 642.92 647.48 642.92 647.48 642.63 647.48 636.26 647.48 635.97 647.77 635.97 661.36 635.97 661.36 632.69 643.75 632.69 643.75 656.64 661.53 656.64 661.53 653.36 647.77 653.36"/></svg>